<svg xmlns="http://www.w3.org/2000/svg">
<defs>
<font id="UTMAlterGothic" horiz-adv-x="788" >
  <font-face 
    font-family="UTMAlterGothic"
    font-weight="400"
    font-stretch="normal"
    units-per-em="2048"
    panose-1="2 4 6 3 5 5 6 2 2 4"
    ascent="1638"
    descent="-410"
    x-height="1018"
    cap-height="1366"
    bbox="-49 -512 4942 2045"
    underline-thickness="109"
    underline-position="-359"
    unicode-range="U+0020-2026"
  />
<missing-glyph horiz-adv-x="5040" 
d="M3351 2045h10q37 -10 37 -52q0 -12 -32 -57h-28q0 24 28 54l2 10q-5 13 -10 15h-9q-8 0 -10 -19h-30q6 49 42 49zM2019 2016l29 -31q0 -16 -40 -30h-19l-59 12l-11 -12l-28 25q11 29 43 29h11l42 -11h2q10 0 30 18zM468 1980h142v-60h-94v-75h89v-59h-89v-129l-5 -5h-49
v323zM1155 1980h43l6 -5v-78h30v-52h-30v-188l-6 -5h-49v193h-25v52h25v78zM1621 1980h42l4 -5v-94h3q23 24 54 24h2q58 0 83 -71l2 -39v-143h-52v115q0 80 -42 80h-7q-43 0 -43 -86v-109h-51v323zM2200 1980h49l5 -5v-222q10 -51 45 -51q44 7 44 59v214l5 5h49v-216
q0 -85 -66 -112q-15 -8 -35 -8q-47 0 -82 55q-14 24 -14 57v224zM2435 1980h159v-60h-56v-268h-53v268h-55v55zM2621 1980h71q7 -4 83 -251h2l80 251h73v-328h-54v242h-2l-74 -242h-44q-4 0 -58 182l-19 60h-3v-242h-55v328zM3760 1980h52v-328h-45l-5 5v11l3 2l-3 14
q-29 -40 -78 -40q-67 0 -100 91l-5 39v3q0 94 92 125l23 3q35 0 63 -32h3v107zM2057 1928h36l4 -6v-49h-45v-221h-48v23q-23 -31 -59 -31q-89 14 -89 97v156h51v-104q0 -79 26 -86l18 -5h6q26 0 39 36l3 26v133h53v25zM3476 1928v-55h-31v-221h-47v25h-2q-15 -33 -57 -33
q-68 0 -86 78l-3 29v146h52v-120q0 -50 19 -68l21 -7h9q42 0 42 69v126h27q4 0 4 28l3 3h49zM758 1905q68 0 103 -77q9 -18 12 -54q0 -88 -90 -127l-32 -3q-63 0 -101 73q-12 22 -12 52v10q0 94 101 126h19zM1011 1905h3q74 0 83 -101v-152h-51v119q0 76 -42 76h-5
q-44 0 -44 -76v-119h-52v245h46v-21q30 29 62 29zM1466 1905h7q72 0 105 -89h-60q-16 31 -42 31h-17q-53 -14 -53 -61l-3 -15q12 -69 61 -69h9q22 0 47 27h40l2 3h3l2 -3l2 3l3 -3l2 3l2 -7q-33 -81 -110 -81q-76 0 -110 94l-4 36v3q0 85 77 120q15 8 37 8zM3141 1905h2

<glyph glyph-name=".notdef" horiz-adv-x="5040" 
d="M3351 2045h10q37 -10 37 -52q0 -12 -32 -57h-28q0 24 28 54l2 10q-5 13 -10 15h-9q-8 0 -10 -19h-30q6 49 42 49zM2019 2016l29 -31q0 -16 -40 -30h-19l-59 12l-11 -12l-28 25q11 29 43 29h11l42 -11h2q10 0 30 18zM468 1980h142v-60h-94v-75h89v-59h-89v-129l-5 -5h-49
v323zM1155 1980h43l6 -5v-78h30v-52h-30v-188l-6 -5h-49v193h-25v52h25v78zM1621 1980h42l4 -5v-94h3q23 24 54 24h2q58 0 83 -71l2 -39v-143h-52v115q0 80 -42 80h-7q-43 0 -43 -86v-109h-51v323zM2200 1980h49l5 -5v-222q10 -51 45 -51q44 7 44 59v214l5 5h49v-216
q0 -85 -66 -112q-15 -8 -35 -8q-47 0 -82 55q-14 24 -14 57v224zM2435 1980h159v-60h-56v-268h-53v268h-55v55zM2621 1980h71q7 -4 83 -251h2l80 251h73v-328h-54v242h-2l-74 -242h-44q-4 0 -58 182l-19 60h-3v-242h-55v328zM3760 1980h52v-328h-45l-5 5v11l3 2l-3 14
q-29 -40 -78 -40q-67 0 -100 91l-5 39v3q0 94 92 125l23 3q35 0 63 -32h3v107zM2057 1928h36l4 -6v-49h-45v-221h-48v23q-23 -31 -59 -31q-89 14 -89 97v156h51v-104q0 -79 26 -86l18 -5h6q26 0 39 36l3 26v133h53v25zM3476 1928v-55h-31v-221h-47v25h-2q-15 -33 -57 -33
q-68 0 -86 78l-3 29v146h52v-120q0 -50 19 -68l21 -7h9q42 0 42 69v126h27q4 0 4 28l3 3h49zM758 1905q68 0 103 -77q9 -18 12 -54q0 -88 -90 -127l-32 -3q-63 0 -101 73q-12 22 -12 52v10q0 94 101 126h19zM1011 1905h3q74 0 83 -101v-152h-51v119q0 76 -42 76h-5
q-44 0 -44 -76v-119h-52v245h46v-21q30 29 62 29zM1466 1905h7q72 0 105 -89h-60q-16 31 -42 31h-17q-53 -14 -53 -61l-3 -15q12 -69 61 -69h9q22 0 47 27h40l2 3h3l2 -3l2 3l3 -3l2 3l2 -7q-33 -81 -110 -81q-76 0 -110 94l-4 36v3q0 85 77 120q15 8 37 8zM3141 1905h2
q49 0 70 -60v-14h-52q0 16 -16 16h-4q-14 0 -19 -13v-13q0 -9 68 -35q30 -19 30 -59q0 -58 -61 -80l-23 -3q-76 12 -76 83h54q0 -20 27 -25h4q19 0 24 23q0 22 -68 44q-34 27 -34 59q0 66 74 77zM4203 1905q55 0 77 -63q7 -18 7 -65v-125h-52v112q0 83 -40 83h-11
q-33 0 -40 -54v-141h-52v5h-2l2 2v238h47v-21q25 29 64 29zM4432 1905h5q40 0 69 -40v18l-3 3l3 11h47v-208q0 -97 -85 -132l-33 -4h-7q-70 0 -104 80h59q24 -22 45 -23h13q22 0 43 22q15 13 22 52h-3q-32 -40 -73 -40q-57 0 -96 70q-10 18 -14 63q0 88 87 125zM3851 1897
h53v-136q6 -59 40 -59h7q46 0 46 93v102h51v-245h-47l-3 10h3l-3 3v5l3 2v3h-4q0 -23 -57 -31h-3q-59 0 -84 75l-2 85v93zM690 1771q10 -69 63 -69h7q59 14 59 65v15q-13 65 -59 65h-5q-58 0 -65 -76zM3630 1774q13 -72 61 -72h5q58 0 66 75q0 49 -51 70h-22q-37 0 -56 -57z
M4374 1774q8 -72 65 -72h5q59 12 59 72q0 61 -59 73h-14q-56 -16 -56 -62v-11zM3928 1620h52v-57h-52v57zM1054 1402q43 -11 43 -49v-4q0 -17 -32 -60h-28q0 25 31 57v7q0 12 -7 15h-12q-10 -4 -10 -19h-28v6q0 32 33 44zM3349 1339q92 0 138 -99h-60q-37 42 -80 42
q-55 0 -87 -68q-10 -22 -10 -47q0 -78 81 -110l18 -1q36 0 75 39h61q-44 -97 -138 -97q-93 0 -141 112q-10 31 -10 62q0 97 90 152q29 15 63 15zM3664 1339q57 0 103 -47q46 -51 46 -115v-20q0 -89 -91 -146q-33 -13 -63 -13q-89 0 -138 101q-13 33 -13 60v18q0 98 98 151
q29 11 58 11zM2261 1337h2l47 -11h3q11 0 26 11l18 -36q-18 -19 -35 -19h-3l-54 10l-20 -7l-20 36q18 16 36 16zM716 1334h19q118 0 129 -26q25 -26 25 -62q-10 -57 -30 -57v-6q47 -23 47 -66v-18q0 -63 -69 -88l-54 -5h-67v328zM2550 1334h53v-217q6 -61 45 -61q29 0 44 39
l3 30v203l4 6h45l5 -6v-171q0 -118 -40 -133q-24 -26 -64 -26q-55 0 -91 76l-4 54v206zM2805 1334h59q4 0 122 -237h4v237h50l4 -6v-322h-58q-29 48 -125 238h-3v-238h-53v328zM3101 1334h54v-328h-54v328zM3859 1334h8q155 0 174 -40q23 -11 47 -75l4 -36v-11l3 -2
q0 -94 -82 -149q-35 -15 -99 -15h-55v328zM4141 1334h153v-60h-103v-75h101v-57h-101v-74l4 -5h99v-57h-157v322zM3563 1175v-10q0 -76 79 -108l19 -1q68 0 96 86l3 20v15q0 61 -60 94q-12 8 -39 11q-66 0 -96 -83zM770 1274v-67h9q54 0 54 28l3 14q-11 25 -29 25h-37z
M3912 1274v-206l2 -3v-2q104 0 122 76l2 15v29q0 34 -32 68q-25 23 -78 23h-16zM1041 1259h5q38 0 71 -40v32h49v-245h-49v32q-36 -40 -80 -40q-75 0 -101 97l-5 36q0 89 85 125zM1314 1259h3q74 0 83 -102v-151h-51v128q0 67 -42 67h-10q-34 0 -39 -62v-133h-52v245h47v-21
q28 29 61 29zM1543 1259h5q45 0 71 -40v32h47v-219q0 -95 -104 -126h-16q-74 0 -108 82h59q26 -25 44 -25h14q52 0 64 77q-33 -42 -76 -42q-60 0 -101 81l-7 44v16q0 79 85 117zM1912 1259h2q43 0 61 -37h2q32 37 69 37h4q57 0 79 -55q8 -25 8 -45v-153h-52v138q0 44 -23 55
l-12 2h-15q-32 0 -36 -65v-130h-52v136q0 59 -43 59h-8q-32 0 -36 -57v-138h-54v245h50v-21h2q6 24 54 29zM2282 1259q47 0 75 -42v34h47v-245h-47v32q-36 -40 -78 -40q-74 0 -102 92l-6 41q0 90 85 125zM985 1117q0 -48 61 -61h4q45 0 62 46l3 15v22q-12 62 -57 62h-14
q-41 0 -59 -57v-27zM1487 1128q0 -48 43 -68l18 -4h5q47 0 63 57v23q-11 65 -58 65h-12q-50 0 -59 -73zM2225 1131v-14q15 -61 57 -61h14q58 12 58 64v11q0 45 -37 65l-18 5h-10q-64 -8 -64 -70zM770 1150v-82q0 -5 7 -5q77 0 77 45q0 34 -47 42h-37zM2966 753l24 -28
l-51 -55q-18 12 -27 26zM1524 727l85 -54q0 -15 -21 -42l-87 54q18 41 23 42zM2850 693h38l55 -60h-54l-21 26l-23 -26h-54q54 60 59 60zM3422 693h40l56 -60h-54l-24 26h-1q0 -5 -19 -26h-54zM622 685h52q8 -4 47 -137l34 -110q9 8 34 100l48 147h54v-2l-112 -326h-44z
M1159 685h51v-54h-51v54zM1354 685h46l6 -5v-323h-52v328zM2317 685h45l4 -5v-78h31v-52h-31v-193h-53v193h-26v52h26v78zM2425 685h52v-98h2q23 23 54 23h3q57 0 81 -71l3 -38v-144h-52v115q0 81 -39 81h-10q-42 0 -42 -87v-109h-52v328zM2664 685h52v-54h-52v54zM3028 685
h44l6 -5v-78h29v-52h-29v-193h-54v193h-27v52h27v78zM3234 685h52v-328h-52v328zM3957 685h52v-328h-52v328zM4316 685h51v-54h-51v54zM1555 610h5q83 0 110 -102l3 -23v-11q0 -83 -85 -120l-35 -5q-76 0 -111 97l-4 32q0 97 93 130zM1811 610h4q53 0 78 -60q7 -25 7 -81
v-112h-54v146q-7 50 -37 50h-10q-38 0 -42 -57v-139h-54v245h49v-21q26 29 59 29zM2046 610h4q45 0 63 -39h3v31h49v-206q0 -102 -89 -135l-28 -3h-5q-73 0 -106 81h52l37 -20l15 -3h14q50 0 61 72q-33 -39 -73 -39q-62 0 -98 76q-11 23 -12 60q0 85 86 123zM2866 610h2
q82 0 111 -104l2 -25l-2 -27h-172q15 -45 45 -45l14 -3q29 0 49 22h57v-3q-35 -76 -108 -76q-77 0 -111 97l-1 28v8q0 49 32 89q34 39 82 39zM3429 610h5q41 0 70 -39h2v31h47v-245h-47v31h-2q-35 -39 -77 -39q-71 0 -101 89l-5 36v14q0 86 84 120zM3711 610h7
q88 0 107 -128l-2 -1v-15q0 -65 -66 -106q-21 -11 -46 -11q-34 0 -64 32v-99l-5 -5h-49v325h49v-28q31 36 69 36zM4151 610q44 0 75 -39v31h49v-245h-49v31q-35 -39 -77 -39q-92 0 -108 132q0 84 73 121q15 8 37 8zM922 602h50v-136q3 -60 42 -60h5q44 0 44 87v109h52v-245
h-47v24h-5q0 -23 -56 -32h-3q-55 0 -82 68q-4 35 -4 99v81zM1159 602h51v-245h-51v245zM2664 602h52v-245h-52v245zM4316 602h51v-245h-51v245zM1492 488v-16q13 -66 59 -66h4q59 0 66 76q-13 71 -59 71h-11q-59 -16 -59 -65zM1987 472q15 -66 59 -66h11q48 0 59 75v1
q-13 71 -59 71h-14q-39 0 -56 -57v-24zM2805 506h122v2q-16 45 -59 45h-7q-35 0 -56 -47zM3373 474q13 -68 61 -68h5q52 0 65 63v12q-10 72 -57 72h-16q-56 -14 -56 -63zM3642 478q12 -72 61 -72h3q50 0 65 60v22q0 43 -49 65h-22q-47 0 -58 -72v-3zM4095 472q10 -66 66 -66
q43 0 61 48l2 15v16q0 54 -52 68h-18q-42 0 -59 -60v-21zM3416 321h51v-52h-51v52zM4137 321h51v-52h-51v52zM2733 133h4q35 0 43 -50v-2q0 -16 -24 -41l-10 -17h-28q0 25 28 56l3 2v2q-3 19 -9 19h-10q-8 0 -9 -19h-30q6 50 42 50zM1546 116l52 -60l-26 -19l-52 52zM352 79
h4q75 -48 85 -60l-20 -37q-88 49 -88 58zM3490 79l86 -58l-18 -39q-10 0 -91 55q15 36 23 42zM4578 76l19 -42l-91 -52l-20 39l92 58v-3zM1204 53h51v-19l5 -5h14v-36h-14l-5 -5v-279h-46v31q-34 -40 -81 -40q-72 0 -102 105l-3 26q0 102 101 131h14q33 0 66 -33v59l-6 5
h-43v36h49v24zM1480 45h40l56 -61h-53l-23 27l-23 -27h-53zM2641 45h33q12 0 63 -61h-54l-23 27q-19 -21 -19 -27h-58v4zM49 37h160v-60h-56v-268h-50l-4 5v245l2 3v2l-2 2l2 3l-2 2l2 3l-2 3h-54v54zM699 37h47v-73l2 -2l-2 -3v-3l2 -2l-2 -3v-3l2 -2v-2l-2 -3l2 -3h3
q17 24 51 24h3q53 0 77 -58q7 -17 7 -42v-153h-52v127q0 68 -40 68h-8q-43 0 -43 -86v-109h-52v322zM1297 37h47l5 -6v-49h-52v55zM1987 37h52v-198l70 115h62l-78 -118l90 -125v-2h-70q-10 22 -74 115v-115h-52v328zM2271 37v-99q24 24 53 24q57 0 80 -56q10 -19 10 -77
v-120h-54v133q0 62 -41 62h-11q-31 0 -37 -55v-140h-53v314l-1 3v3l1 2l-1 3l1 3h53zM2458 37h51v-55h-51v55zM3148 37h51v-108q27 33 68 33h3q75 0 105 -94l5 -37q0 -75 -64 -120q-30 -11 -49 -11q-41 0 -72 40v-31h-47v328zM4275 37h52v-99h2q23 24 54 24h3q60 0 82 -74
l2 -41v-138h-52v111q0 82 -32 82l-10 2h-12q-37 0 -37 -80v-115h-52v328zM329 -38h3v-58h-5q-42 0 -42 -57v-138h-53v245h47v-21q18 29 50 29zM564 -38q71 0 86 -87v-166h-51v136q-6 59 -41 59h-6q-45 0 -45 -84v-111h-52v245h50v-21q25 29 59 29zM1504 -38q72 0 105 -94
l5 -39q-2 -24 -7 -24h-169q17 -47 62 -47q24 0 48 21h57q-33 -79 -108 -79q-82 0 -113 105v37q0 81 89 117zM2657 -38h5q77 0 107 -97l3 -26v-21l-3 -13h-170q18 -47 53 -47h12q21 0 42 21h59q-34 -79 -105 -79q-84 0 -115 102l-2 29q0 93 91 128zM2915 -38h4q54 0 78 -60
q7 -25 7 -82v-111h-54v138q0 48 -35 57h-11q-38 0 -43 -57v-138h-54v245h50v-21q25 29 58 29zM3508 -38h6q40 0 70 -40h2v32h47v-245h-47v31h-2q-34 -40 -78 -40q-71 0 -101 90l-4 37v12q0 82 77 117q11 6 30 6zM3781 -38h4q62 0 82 -78l3 -84v-91h-54v138q0 48 -38 57h-9
q-38 0 -42 -52v-143h-54v245h49v-21q26 29 59 29zM4133 -38h1q74 0 104 -93l4 -40q0 -88 -84 -126l-25 -3q-41 0 -68 34v-106h-52v326h47v-29q30 37 73 37zM4714 -38h5q34 0 63 -37q27 37 69 37h6q56 0 79 -66l6 -51v-136h-52v122q0 73 -39 73h-7q-35 0 -41 -50v-140l-5 -5
h-48v140q0 42 -31 55h-17q-40 0 -40 -77v-118h-51v245h47v-21q22 29 56 29zM359 -46h49l5 -6v-234l-5 -5h-49v245zM1297 -46h52v-245h-52v245zM1649 -46h52v-136q4 -60 43 -60h4q44 0 44 81v115h52v-245h-47v24h-5q-12 -33 -59 -33q-52 0 -79 63q-5 12 -5 34v157zM2458 -46
h51v-245h-51v245zM4515 -46h51v-245h-51v245zM1077 -169q0 -53 51 -73h12q54 0 66 66v10q0 53 -54 70h-17q-38 0 -58 -57v-16zM1438 -143h122q-18 47 -53 47h-7q-43 0 -62 -44v-3zM2599 -143h122q-21 47 -54 47h-7q-46 0 -61 -47zM3196 -158v-11q10 -73 61 -73h5q64 8 64 71
v5q0 45 -38 65l-18 5h-14q-60 -14 -60 -62zM3452 -173q14 -69 62 -69h11q41 0 59 60v13q-8 73 -56 73h-17q-47 0 -59 -73v-4zM4062 -158v-22q0 -47 59 -62h9q50 0 61 76q-13 70 -58 70h-15q-56 -17 -56 -62z" />
    <glyph glyph-name=".null" horiz-adv-x="0" 
 />
    <glyph glyph-name="nonmarkingreturn" horiz-adv-x="571" 
 />
    <glyph glyph-name="space" unicode=" " horiz-adv-x="512" 
 />
    <glyph glyph-name="exclam" unicode="!" horiz-adv-x="444" 
d="M284 412h-127l-49 954h225zM122 0v219h199v-219h-199z" />
    <glyph glyph-name="quotedbl" unicode="&#x22;" horiz-adv-x="724" 
d="M589 817h-135l-35 549h205zM270 817h-135l-35 549h205z" />
    <glyph glyph-name="numbersign" unicode="#" horiz-adv-x="1228" 
d="M1173 817h-217l-37 -242h219l-24 -167h-221l-64 -408h-188l63 408h-243l-66 -408h-186l63 408h-221l25 167h223l37 242h-222l25 168h221l60 381h188l-59 -381h243l60 381h190l-59 -381h217zM522 817l-37 -242h246l37 242h-246z" />
    <glyph glyph-name="dollar" unicode="$" horiz-adv-x="839" 
d="M776 342q0 -147 -77 -244.5t-226 -115.5v-156h-111v158q-104 14 -174 65t-133 129l143 131q25 -28 48.5 -54t50 -45.5t58.5 -30.5t73 -11q71 0 107 47t36 115q0 71 -37 122.5t-92 95.5t-119.5 87t-120 97t-92.5 125t-37 171q0 68 19.5 127t56.5 106.5t91.5 79t121.5 41.5
v127h111v-127q90 -12 153.5 -49t122.5 -102l-141 -137q-37 47 -81 75.5t-105 28.5q-72 0 -111 -43t-39 -113q0 -79 53 -139q35 -37 79 -65.5t85 -57.5q62 -43 115 -86t91 -94t59.5 -113.5t21.5 -144.5z" />
    <glyph glyph-name="percent" unicode="%" horiz-adv-x="1099" 
d="M438 887q0 -49 -9.5 -92t-31 -76t-57 -52.5t-91.5 -19.5q-55 0 -92 19.5t-58.5 52.5t-29.5 76t-8 92v254q0 49 8 92t29.5 75.5t58.5 51t92 18.5q56 0 91.5 -18.5t57 -51t31 -75.5t9.5 -92v-254zM323 0h-112l565 1366h112zM1038 225q0 -49 -8 -93t-29.5 -75.5t-58.5 -51
t-93 -19.5q-55 0 -92 19.5t-58.5 52t-29.5 75.5t-8 92v254q0 49 8 92t29.5 76t58.5 51.5t92 18.5q56 0 91.5 -18.5t57 -51.5t31 -76t9.5 -92v-254zM317 1161q0 41 -9 75t-59 34q-24 0 -37.5 -10.5t-19.5 -25.5t-7 -34.5t-1 -38.5v-297q0 -39 9 -72.5t56 -33.5q50 0 59 32.5
t9 73.5v297zM915 500q0 18 -1 37.5t-7 35t-19.5 25.5t-38.5 10q-49 0 -58 -33.5t-9 -74.5v-297q0 -41 9 -74t58 -33q48 0 57 34t9 73v297z" />
    <glyph glyph-name="ampersand" unicode="&#x26;" horiz-adv-x="960" 
d="M905 -20q-78 8 -140.5 43.5t-117.5 91.5q-60 -58 -120.5 -93.5t-146.5 -35.5q-69 0 -126.5 27.5t-99.5 73.5t-64.5 106.5t-22.5 128.5q0 57 15.5 109t41 101.5t59.5 94.5t68 86q-41 78 -65.5 158.5t-24.5 168.5q0 64 17.5 124.5t53.5 108.5t88 76.5t124 28.5
q59 0 106 -22.5t81 -60.5t51.5 -88t17.5 -107q0 -64 -20.5 -119t-52.5 -105.5t-71.5 -96.5t-76.5 -91q30 -72 69 -139.5t86 -126.5q31 57 41 102t17 109l182 -23q-8 -98 -31.5 -178t-77.5 -162q27 -34 63 -54.5t77 -31.5v-204zM507 1133q0 38 -16 77t-64 39q-28 0 -45.5 -15
t-26.5 -37.5t-13.5 -49.5t-4.5 -47q0 -62 15.5 -120t40.5 -114q47 58 80.5 123.5t33.5 143.5zM526 256q-58 61 -103 130t-82 144q-28 -43 -46.5 -86t-18.5 -96q0 -26 8 -54t23.5 -51.5t38 -39t53.5 -15.5q41 0 70.5 19.5t56.5 48.5z" />
    <glyph glyph-name="quotesingle" unicode="'" horiz-adv-x="405" 
d="M270 817h-135l-35 549h205z" />
    <glyph glyph-name="parenleft" unicode="(" horiz-adv-x="544" 
d="M364 -250q-135 180 -216 396t-81 444q0 227 81 443t216 397l119 -82q-109 -170 -166 -363.5t-57 -394.5t57 -394.5t166 -363.5z" />
    <glyph glyph-name="parenright" unicode=")" horiz-adv-x="544" 
d="M477 590q0 -228 -81 -444t-216 -396l-119 82q109 170 166 363.5t57 394.5t-57 394.5t-166 363.5l119 82q135 -181 216 -397t81 -443z" />
    <glyph glyph-name="asterisk" unicode="*" horiz-adv-x="626" 
d="M415 1106l92 -107l-123 -88l-71 119l-72 -119l-123 88l92 107l-135 31l45 143l131 -55l-14 141h151l-12 -141l129 55l47 -143z" />
    <glyph glyph-name="plus" unicode="+" horiz-adv-x="1024" 
d="M604 600v-338h-185v338h-352v172h352v338h185v-338h352v-172h-352z" />
    <glyph glyph-name="comma" unicode="," horiz-adv-x="354" 
d="M157 -283h-80l92 283h-92v219h199v-219z" />
    <glyph glyph-name="hyphen" unicode="-" horiz-adv-x="292" 
d="M0 434v170h293v-170h-293z" />
    <glyph glyph-name="hyphen" unicode="&#x2010;" horiz-adv-x="292" 
d="M0 434v170h293v-170h-293z" />
    <glyph glyph-name="period" unicode="." horiz-adv-x="354" 
d="M77 0v219h199v-219h-199z" />
    <glyph glyph-name="slash" unicode="/" horiz-adv-x="759" 
d="M206 -137h-172l506 1503h172z" />
    <glyph glyph-name="zero" unicode="0" horiz-adv-x="839" 
d="M763 434q0 -88 -14.5 -170t-52 -145.5t-105.5 -101t-172 -37.5q-84 0 -152.5 30.5t-117.5 100.5q-47 67 -59.5 155t-12.5 168v498q0 86 14.5 168t53 145.5t104.5 102t170 38.5q86 0 154.5 -30.5t117.5 -102.5q48 -67 60 -154t12 -167v-498zM564 973q0 39 -3 80t-16 72.5
t-43 52t-83 20.5q-49 0 -77.5 -18.5t-44 -47t-19.5 -65.5t-4 -76v-618q0 -39 4 -76t19.5 -65.5t44 -46t77.5 -17.5q51 0 81 19.5t44 52t17 71.5t3 80v582z" />
    <glyph glyph-name="one" unicode="1" horiz-adv-x="839" 
d="M364 0v1044h-197v125q78 35 150.5 83t128.5 114h116v-1366h-198z" />
    <glyph glyph-name="two" unicode="2" horiz-adv-x="839" 
d="M759 1024q0 -78 -19.5 -148.5t-52 -137t-74.5 -128t-87 -121.5q-58 -77 -115 -152t-115 -153h435v-184h-664v184q102 133 213 278.5t195 289.5q38 65 58.5 130.5t20.5 143.5q0 33 -6 63.5t-21.5 55t-41 39t-64.5 14.5q-49 0 -77.5 -21.5t-43 -55.5t-18.5 -74.5t-4 -77.5
h-199v41q0 84 21.5 153.5t64.5 118.5t108.5 76.5t153.5 27.5q82 0 144.5 -27.5t104.5 -75.5t62.5 -114.5t20.5 -144.5z" />
    <glyph glyph-name="three" unicode="3" horiz-adv-x="839" 
d="M761 399q0 -86 -19.5 -162.5t-60.5 -133t-108.5 -90t-161.5 -33.5q-84 0 -148.5 28.5t-107.5 78.5t-64.5 118.5t-21.5 148.5v35h205q0 -37 4 -76t18.5 -71.5t43 -53t75.5 -20.5q45 0 74 22.5t43 56.5t19 73.5t5 76.5q0 56 -8 98t-29.5 69.5t-59.5 42t-97 16.5v190
q104 2 142 45t38 148q0 32 -4 66t-18.5 61.5t-39 46t-65.5 18.5q-35 0 -62.5 -16.5t-44 -43t-22.5 -58t0 -64.5h-199v26q0 76 24 138.5t68 108.5t105 71.5t137 25.5q86 0 146.5 -29.5t98.5 -80.5t55.5 -121t17.5 -147q0 -105 -31 -176.5t-133 -110.5q61 -19 98 -49.5
t56.5 -71.5t25.5 -92t6 -109z" />
    <glyph glyph-name="four" unicode="4" horiz-adv-x="839" 
d="M649 346v-346h-199v346h-422v213l406 807h215v-836h153v-184h-153zM450 1032l-238 -502h238v502z" />
    <glyph glyph-name="five" unicode="5" horiz-adv-x="839" 
d="M760 471q0 -94 -11.5 -182t-47.5 -157t-104.5 -110.5t-182.5 -41.5q-86 0 -147.5 27.5t-99.5 75.5t-56.5 115.5t-18.5 147.5v39h199q-2 -8 -2 -16.5v-16.5q0 -35 4 -67.5t17 -59t39 -42t67 -15.5q59 0 88.5 34t41 82t10.5 101t-1 94q0 39 -1 91.5t-13.5 100.5t-41 81.5
t-83.5 33.5q-56 0 -85.5 -31.5t-54.5 -76.5h-180l12 688h598v-184h-424l-6 -312q47 41 95.5 62.5t111.5 21.5q103 0 159 -47t81.5 -118.5t31 -156.5t5.5 -161z" />
    <glyph glyph-name="six" unicode="6" horiz-adv-x="839" 
d="M765 432q0 -86 -15.5 -168t-54.5 -145.5t-105.5 -101t-166.5 -37.5q-107 0 -173.5 40.5t-103 108.5t-50 154t-13.5 176v487q0 84 13.5 168t66.5 154q47 61 114.5 89.5t145.5 28.5q156 0 240 -95t84 -247v-32h-199q0 35 -3 68.5t-15.5 59t-38 42t-70.5 16.5
q-57 0 -87 -30.5t-42 -74.5t-12 -95.5v-90.5v-168q41 56 88 82.5t118 26.5q91 0 145 -38t84 -97.5t40 -133t10 -147.5zM560 420q0 37 -3 80t-16.5 77.5t-41 58t-76.5 23.5t-82 -24.5t-61 -59.5v-188q0 -37 5 -76t19.5 -70.5t42 -52t74.5 -20.5q51 0 79.5 24.5t42 62.5
t15.5 82t2 83z" />
    <glyph glyph-name="seven" unicode="7" horiz-adv-x="839" 
d="M427 0h-209l303 1182h-444v184h655v-147z" />
    <glyph glyph-name="eight" unicode="8" horiz-adv-x="839" 
d="M765 385q0 -86 -18.5 -160.5t-59.5 -129t-107.5 -85t-160.5 -30.5q-74 0 -139.5 23.5t-116.5 78.5q-59 63 -74.5 144t-15.5 165q0 53 6 102.5t23.5 92.5t50.5 76.5t86 56.5q-49 22 -79 53t-45 70t-20.5 83t-5.5 95q0 82 19.5 149.5t59.5 115.5t102.5 74.5t148.5 26.5
t148.5 -26.5t102.5 -74.5t59.5 -115.5t19.5 -149.5q0 -51 -5 -95t-20.5 -83t-45.5 -70t-79 -53q56 -23 88.5 -57.5t50 -77.5t22.5 -94.5t5 -104.5zM550 1006q0 32 -5 67t-19.5 62.5t-40 45t-66.5 17.5t-66.5 -17.5t-40 -45t-19.5 -62.5t-5 -67q0 -35 5 -69t19.5 -62.5
t40 -46t66.5 -17.5t66.5 17.5t40 46t19.5 62.5t5 69zM560 393q0 37 -4 77t-19 71.5t-43 53t-75 21.5t-74.5 -21.5t-43 -53t-19.5 -71.5t-4 -77t4 -77t19.5 -72.5t43 -54t74.5 -21.5t75 21.5t43 54t19 72.5t4 77z" />
    <glyph glyph-name="nine" unicode="9" horiz-adv-x="839" 
d="M757 420q0 -86 -13.5 -169t-68.5 -153q-47 -61 -114.5 -89.5t-145.5 -28.5t-137.5 25.5t-101.5 70.5t-63.5 108.5t-21.5 137.5v32h199q0 -37 3 -69.5t15.5 -59t38 -42t70.5 -15.5q57 0 86 29.5t41 74.5t13 94.5t1 90.5v170q-41 -56 -88 -82.5t-119 -26.5q-90 0 -144 38
t-84 97.5t-39 133t-9 147.5q0 86 15.5 168t54.5 144.5t104.5 101t165.5 38.5q106 0 173 -41.5t104.5 -109.5t51 -154t13.5 -174v-487zM558 977q0 37 -4 76t-19.5 71.5t-43 53t-74.5 20.5q-51 0 -78.5 -25.5t-41 -63.5t-15.5 -83t-2 -82t3 -79t15.5 -77.5t40 -58t76.5 -22.5
t82 22.5t61 61.5v186z" />
    <glyph glyph-name="colon" unicode=":" horiz-adv-x="354" 
d="M77 799v219h199v-219h-199zM77 0v219h199v-219h-199z" />
    <glyph glyph-name="semicolon" unicode=";" horiz-adv-x="354" 
d="M77 799v219h199v-219h-199zM157 -283h-80l92 283h-92v219h199v-219z" />
    <glyph glyph-name="less" unicode="&#x3c;" horiz-adv-x="1024" 
d="M67 600v158l889 426v-183l-692 -323l690 -324l2 -182z" />
    <glyph glyph-name="equal" unicode="=" horiz-adv-x="1024" 
d="M67 780v162h889v-162h-889zM67 455v161h889v-161h-889z" />
    <glyph glyph-name="greater" unicode="&#x3e;" horiz-adv-x="1024" 
d="M67 172v184l692 322l-690 323l-2 183l889 -426v-158z" />
    <glyph glyph-name="question" unicode="?" horiz-adv-x="727" 
d="M671 1114q0 -76 -30 -133t-71 -119q-38 -59 -64 -101t-40 -83t-19.5 -89t-5.5 -120v-53h-172q-2 28 -3 58t-1 61q0 67 10.5 121.5t29 103.5t44 97t58.5 108q20 34 38.5 72t18.5 79t-24.5 64.5t-65.5 23.5q-33 0 -55.5 -15t-40 -40t-28.5 -53.5t-20 -53.5l-190 56
q41 133 120 206.5t224 73.5q59 0 111.5 -17.5t91.5 -51t61.5 -82.5t22.5 -113zM259 0v219h199v-219h-199z" />
    <glyph glyph-name="at" unicode="@" horiz-adv-x="964" 
d="M749 362l-25 56q-34 -39 -67 -57.5t-86 -18.5q-86 0 -125 42t-39 128v385q0 86 45 136t133 50q41 0 66.5 -11t56.5 -40v43q0 43 -19.5 74t-50 50.5t-68.5 27.5t-75 8q-43 0 -84 -11.5t-76 -39.5q-43 -35 -51 -76t-8 -94v-637q0 -43 6 -86t33 -78q35 -45 87 -64.5
t105 -19.5q113 0 201 66l103 -95q-62 -65 -139 -92.5t-167 -27.5q-84 0 -157.5 21.5t-127 64.5t-84 109.5t-30.5 156.5v712q0 91 28.5 155.5t81 106.5t123 61t154.5 19q80 0 149.5 -19t122 -59t83 -102.5t30.5 -148.5v-695h-129zM708 868q0 39 -11 58.5t-54 19.5
q-41 0 -52.5 -20.5t-11.5 -57.5v-309q0 -39 12.5 -58.5t53.5 -19.5t52 20.5t11 57.5v309z" />
    <glyph glyph-name="A" unicode="A" horiz-adv-x="923" 
d="M665 0l-57 297h-293l-53 -297h-207l262 1366h289l276 -1366h-217zM458 1104l-108 -612h221z" />
    <glyph glyph-name="B" unicode="B" horiz-adv-x="933" 
d="M852 387q0 -188 -111 -287.5t-295 -99.5h-342v1366h315q86 0 159 -19.5t126 -62.5t84 -108.5t31 -157.5q0 -121 -55.5 -194.5t-170.5 -108.5q48 -15 86.5 -29t75.5 -49q54 -47 75.5 -112.5t21.5 -137.5zM604 1001q0 97 -60.5 133.5t-148.5 36.5h-80v-362h76
q90 0 151.5 49t61.5 143zM632 387q0 109 -68.5 168t-172.5 59h-76v-419h106q95 0 153 47t58 145z" />
    <glyph glyph-name="C" unicode="C" horiz-adv-x="909" 
d="M835 434q0 -96 -18 -179t-62 -144.5t-116 -96t-178 -34.5q-97 0 -174.5 34.5t-130.5 116.5q-27 39 -40.5 84t-19.5 93t-6 95.5v94.5v383q0 51 1 100t8 97t23.5 93.5t47.5 88.5q51 67 129 96.5t160 29.5q96 0 166.5 -32.5t115.5 -89t66.5 -134t21.5 -167.5v-41h-211
q0 43 -4 89t-20.5 86t-48 65.5t-86.5 25.5q-58 0 -89.5 -25.5t-47 -64.5t-18.5 -85t-3 -89v-455q0 -43 2 -94t17.5 -94t48 -73t92.5 -30q59 0 93 31t49 76t18.5 98t3.5 96h210v-45v0z" />
    <glyph glyph-name="D" unicode="D" horiz-adv-x="921" 
d="M831 426q0 -203 -91 -314.5t-302 -111.5h-334v1366h334q213 0 303 -111.5t90 -316.5v-512zM620 881q0 57 -6 110t-26.5 93t-60.5 63.5t-110 23.5h-102v-976h102q70 0 111 23.5t61.5 63.5t25.5 92t5 111v396z" />
    <glyph glyph-name="E" unicode="E" horiz-adv-x="763" 
d="M104 0v1366h618v-195h-407v-360h301v-195h-301v-421h407v-195h-618z" />
    <glyph glyph-name="F" unicode="F" horiz-adv-x="751" 
d="M315 1171v-368h305v-195h-305v-608h-211v1366h625v-195h-414z" />
    <glyph glyph-name="G" unicode="G" horiz-adv-x="917" 
d="M727 0l-39 117q-51 -70 -109.5 -103.5t-146.5 -33.5q-90 0 -165 39.5t-118 119.5q-45 84 -52 178.5t-7 186.5v377q0 51 1 100t8 97t23.5 93.5t47.5 88.5q51 67 129 96.5t160 29.5q96 0 166.5 -32.5t115.5 -89t66.5 -134t21.5 -167.5v-41h-211q0 43 -4 89t-20.5 86
t-48 65.5t-86.5 25.5q-58 0 -89.5 -25.5t-47 -64.5t-18.5 -86t-3 -90v-418q0 -45 2 -101.5t17.5 -106.5t49 -84t97.5 -34q63 0 96 34t46 84t14.5 106.5t1.5 101.5h-175v174h385v-678h-108z" />
    <glyph glyph-name="H" unicode="H" horiz-adv-x="929" 
d="M614 0v602h-299v-602h-211v1366h211v-569h299v569h213v-1366h-213z" />
    <glyph glyph-name="I" unicode="I" horiz-adv-x="419" 
d="M104 0v1366h211v-1366h-211z" />
    <glyph glyph-name="J" unicode="J" horiz-adv-x="530" 
d="M425 334q0 -78 -9 -140.5t-37.5 -105.5t-83 -65.5t-142.5 -22.5h-127v199q47 0 82 3t58.5 16t35.5 44t12 86v1018h211v-1032v0z" />
    <glyph glyph-name="K" unicode="K" horiz-adv-x="909" 
d="M657 0l-229 643l-113 -190v-453h-211v1366h211v-567l305 567h227l-288 -498l329 -868h-231z" />
    <glyph glyph-name="L" unicode="L" horiz-adv-x="761" 
d="M104 0v1366h211v-1171h420v-195h-631z" />
    <glyph glyph-name="M" unicode="M" horiz-adv-x="1202" 
d="M897 0v1004l-240 -1004h-117l-235 1004v-1004h-201v1366h309l189 -858l190 858h305v-1366h-200z" />
    <glyph glyph-name="N" unicode="N" horiz-adv-x="964" 
d="M671 0l-366 909v-909h-201v1366h213l342 -850v850h201v-1366h-189z" />
    <glyph glyph-name="O" unicode="O" horiz-adv-x="925" 
d="M835 434q0 -88 -12 -169t-65 -154q-52 -72 -130.5 -101.5t-164.5 -29.5t-164 29.5t-131 101.5q-53 69 -65.5 154t-12.5 169v498q0 86 13.5 168t64.5 153q51 72 130 102.5t165 30.5q88 0 164.5 -30.5t130.5 -102.5q53 -69 65 -153t12 -168v-498zM625 928q0 47 -2.5 95
t-24.5 91q-21 37 -57.5 55.5t-77.5 18.5q-60 0 -92.5 -23.5t-48 -61.5t-18.5 -84t-3 -91v-490q0 -45 3 -91t18.5 -84t48 -61.5t92.5 -23.5q59 0 92 23.5t48 61.5t18.5 84t3.5 91v490z" />
    <glyph glyph-name="P" unicode="P" horiz-adv-x="890" 
d="M849 952q0 -86 -22.5 -168t-85.5 -143q-59 -57 -134 -72.5t-153 -15.5h-139v-553h-211v1366h350q213 0 304 -102.5t91 -311.5zM630 967q0 123 -52 163.5t-171 40.5h-92v-423h92q127 0 175 46t48 173z" />
    <glyph glyph-name="Q" unicode="Q" horiz-adv-x="925" 
d="M897 -100q-78 0 -144.5 24.5t-113.5 89.5q-27 -10 -47.5 -17t-41 -11t-43 -5t-48.5 -1q-86 0 -162 30.5t-129 100.5q-53 69 -65.5 154t-12.5 169v498q0 86 13.5 168t64.5 153q53 72 131 102.5t164 30.5q88 0 164.5 -30.5t130.5 -102.5q53 -69 65 -153t12 -168v-498
q0 -72 -8 -144.5t-43 -135.5q21 -31 49.5 -42.5t63.5 -15.5v-196zM625 928q0 47 -2.5 95t-24.5 91q-21 37 -57.5 55.5t-77.5 18.5q-60 0 -92.5 -23.5t-48 -61.5t-18.5 -84t-3 -91v-490q0 -45 3 -91t18.5 -84t48 -61.5t92.5 -23.5q59 0 92 23.5t48 61.5t18.5 84t3.5 91v490z
" />
    <glyph glyph-name="R" unicode="R" horiz-adv-x="899" 
d="M622 0l-180 561h-127v-561h-211v1366h330q192 0 292.5 -99.5t100.5 -291.5q0 -111 -41 -207t-143 -150l200 -618h-221zM608 963q0 45 -10.5 87t-40.5 76q-31 33 -76 39t-88 6h-78v-415h78q117 0 166 43t49 164z" />
    <glyph glyph-name="S" unicode="S" horiz-adv-x="872" 
d="M828 328q0 -82 -28.5 -146.5t-79.5 -109.5t-118.5 -68.5t-147.5 -23.5q-189 0 -287 103t-127 282l203 59q6 -45 20.5 -89t39 -79t61 -56.5t90.5 -21.5q71 0 113 42t42 114q0 63 -38.5 115.5t-98 101.5t-127 97t-127 106.5t-98.5 130t-39 164.5q0 77 27.5 139.5t76 106.5
t113 67.5t139.5 23.5q82 0 144.5 -25.5t109.5 -71.5t79 -108.5t50 -136.5l-202 -59q-9 33 -23 70t-35.5 65.5t-51.5 48t-71 19.5q-59 0 -98 -40t-39 -99q0 -62 39 -113t98.5 -98t127 -96.5t127 -109t98 -134t38.5 -170.5z" />
    <glyph glyph-name="T" unicode="T" horiz-adv-x="768" 
d="M489 1171v-1171h-211v1171h-264v195h741v-195h-266z" />
    <glyph glyph-name="U" unicode="U" horiz-adv-x="929" 
d="M825 440q0 -90 -11.5 -177t-66.5 -161q-49 -65 -126 -93.5t-157 -28.5q-84 0 -156.5 28.5t-125.5 93.5q-55 72 -66.5 162t-11.5 176v926h211v-960q0 -41 4 -82t19.5 -74t45 -52.5t80.5 -19.5q52 0 81.5 19.5t45 52.5t19.5 74t4 82v960h211v-926v0z" />
    <glyph glyph-name="V" unicode="V" horiz-adv-x="886" 
d="M589 0h-262l-293 1366h217l207 -1038l180 1038h213z" />
    <glyph glyph-name="W" unicode="W" horiz-adv-x="1304" 
d="M1031 0h-196l-177 926l-165 -926h-197l-256 1366h205l155 -881l164 881h183l180 -881l137 881h199z" />
    <glyph glyph-name="X" unicode="X" horiz-adv-x="921" 
d="M659 0l-207 496l-195 -496h-231l305 713l-293 653h234l182 -438l170 438h231l-280 -653l317 -713h-233z" />
    <glyph glyph-name="Y" unicode="Y" horiz-adv-x="901" 
d="M552 532v-532h-213v532l-305 834h231l183 -578l190 578h230z" />
    <glyph glyph-name="Z" unicode="Z" horiz-adv-x="796" 
d="M40 0v199l477 972h-432v195h664v-195l-476 -976h482v-195h-715z" />
    <glyph glyph-name="bracketleft" unicode="[" horiz-adv-x="526" 
d="M96 -195v1561h354v-178h-161v-1204h161v-179h-354z" />
    <glyph glyph-name="backslash" unicode="\" horiz-adv-x="1024" 
d="M751 -170l-698 1706h180l699 -1706h-181z" />
    <glyph glyph-name="bracketright" unicode="]" horiz-adv-x="526" 
d="M75 -195v179h160v1204h-160v178h354v-1561h-354z" />
    <glyph glyph-name="asciicircum" unicode="^" horiz-adv-x="1024" 
d="M788 729l-277 496l-276 -496h-197l352 641h242l352 -641h-196z" />
    <glyph glyph-name="underscore" unicode="_" horiz-adv-x="1024" 
d="M0 -289v164h1024v-164h-1024z" />
    <glyph glyph-name="grave" unicode="`" horiz-adv-x="1024" 
d="M452 1184l-147 182h199l92 -182h-144z" />
    <glyph glyph-name="a" unicode="a" horiz-adv-x="811" 
d="M528 0q-11 29 -14 58.5t-3 60.5q-49 -53 -101 -93t-130 -40q-58 0 -96.5 23.5t-63.5 62.5t-35 87t-10 97q0 68 19.5 122t68.5 101q70 66 166 108t182 79v53q0 26 -3 53t-13 47.5t-30.5 32.5t-53.5 12q-66 0 -88.5 -44t-24.5 -101h-203q13 153 101 232t241 79
q60 0 114 -15.5t95 -62.5q43 -47 49.5 -105.5t6.5 -117.5v-453q0 -69 2 -138.5t20 -137.5h-196zM511 524q-37 -18 -78 -42.5t-75.5 -56.5t-58 -71t-23.5 -86q0 -43 24.5 -78.5t71.5 -35.5t82 27.5t57 64.5v278z" />
    <glyph glyph-name="b" unicode="b" horiz-adv-x="792" 
d="M711 387q0 -55 -4.5 -124.5t-24 -131t-61 -103.5t-117.5 -42q-68 0 -122 34.5t-101 79.5v-100h-193v1366h193v-451q47 46 101 80.5t122 34.5q76 0 117.5 -42t62 -103.5t24 -130t3.5 -123.5v-244zM518 659q0 31 -1 67t-10 66.5t-30.5 51t-64.5 20.5q-37 0 -70 -15t-61 -36
v-608q30 -23 62 -37t71 -14q41 0 62.5 21.5t30.5 52t10 66.5t1 64v301z" />
    <glyph glyph-name="c" unicode="c" horiz-adv-x="772" 
d="M714 324q0 -68 -11.5 -132.5t-58.5 -117.5q-47 -54 -111.5 -74t-132.5 -20q-73 0 -140.5 23.5t-115.5 82.5q-45 57 -54 131t-9 143v295q0 74 9 144.5t54 132.5q46 59 116.5 82.5t142.5 23.5q67 0 130.5 -20.5t110.5 -71.5q53 -57 61.5 -132t8.5 -148h-191q0 34 -2 69
t-14 63.5t-36.5 47t-70.5 18.5q-49 0 -75.5 -22.5t-38.5 -57t-13.5 -75.5t-1.5 -78v-246q0 -37 1.5 -77t13.5 -74.5t38.5 -57t75.5 -22.5q46 0 70.5 19.5t36.5 49t14 66.5t2 71h191v-36v0z" />
    <glyph glyph-name="d" unicode="d" horiz-adv-x="792" 
d="M511 0v100q-47 -45 -102.5 -79.5t-122.5 -34.5q-78 0 -119 42t-60.5 103.5t-22.5 131t-3 124.5v244q0 55 3 123.5t21.5 130t60.5 103.5t120 42q67 0 122.5 -34.5t102.5 -80.5v451h191v-1366h-191zM511 813q-29 21 -62.5 36t-70.5 15q-43 0 -65.5 -23.5t-32 -57
t-9.5 -72.5v-68v-285q0 -28 1.5 -64t11.5 -66.5t31.5 -52t62.5 -21.5q39 0 70.5 14t62.5 37v608z" />
    <glyph glyph-name="e" unicode="e" horiz-adv-x="796" 
d="M714 315q0 -67 -11.5 -128.5t-58.5 -114.5q-47 -54 -111.5 -73t-132.5 -19q-96 0 -157.5 27.5t-97 77.5t-50 119.5t-14.5 155.5v306q0 79 11.5 154t70.5 134q47 45 107.5 64.5t123.5 19.5q70 0 131.5 -21.5t108.5 -72.5q29 -31 44 -66.5t23.5 -73.5t9.5 -79t1 -80v-168
h-441v-92q0 -37 1.5 -78t13.5 -74.5t38.5 -56t78.5 -22.5q43 0 67.5 18t36.5 47t14 63.5t2 69.5h191v-37zM521 700q0 35 -4 66t-18.5 54.5t-39 36.5t-65.5 13q-39 0 -63.5 -14t-37.5 -37.5t-17.5 -54.5t-4.5 -64v-55h250v55z" />
    <glyph glyph-name="f" unicode="f" horiz-adv-x="501" 
d="M516 1188q-23 6 -42.5 11t-41.5 5q-41 0 -60.5 -18.5t-25.5 -46t-5 -60t1 -61.5h157v-172h-157v-846h-193v846h-137v172h137q0 76 1 141.5t22.5 114.5t71 76.5t145.5 27.5q61 0 127 -12v-178v0z" />
    <glyph glyph-name="g" unicode="g" horiz-adv-x="827" 
d="M815 825q-27 25 -66 25q-26 0 -41.5 -8t-31.5 -31q20 -80 20 -166q0 -78 -15.5 -148.5t-50 -125t-94 -87t-147.5 -32.5q-18 0 -36.5 2t-37.5 6q-16 -10 -30.5 -23.5t-14.5 -35.5q0 -33 40 -43.5t99.5 -12.5t128 -7t128 -28.5t99.5 -74.5t40 -146q0 -84 -39 -134
t-98.5 -76.5t-131 -33.5t-137.5 -7q-47 0 -107.5 5t-114.5 23.5t-92 55t-38 100.5q0 37 13.5 63.5t36 46t51 34t59.5 24.5q-49 20 -84 46.5t-35 86.5q0 74 48 106.5t110 51.5q-54 28 -86.5 67t-51 85t-25.5 99.5t-7 108.5q0 80 15 150.5t52 124t96.5 84t149.5 30.5
q86 0 143.5 -28.5t104.5 -100.5q24 74 62 100.5t116 26.5v-203zM502 698q0 31 -4.5 60.5t-17.5 53.5t-35.5 38t-59.5 14t-59.5 -14t-35 -38t-16.5 -53.5t-4 -60.5v-112q0 -31 4 -60.5t16.5 -53t35 -38t59.5 -14.5t59.5 14.5t35.5 38t17.5 53t4.5 60.5v112zM625 -115
q0 29 -18.5 44.5t-45.5 22.5t-55.5 8t-48.5 1l-64 2q-24 2 -50 4t-50 4q-21 -16 -36 -38.5t-15 -49.5q0 -33 21.5 -50t51 -24.5t61 -8.5t54.5 -1q20 0 54 1t64.5 9.5t53.5 26t23 49.5z" />
    <glyph glyph-name="h" unicode="h" 
d="M508 0v745q0 21 -1 41.5t-8.5 38t-22.5 28.5t-42 11q-47 0 -87 -33.5t-66 -68.5v-762h-193v1366h193v-479q51 59 110 101t141 42q52 0 84.5 -20.5t51 -53t24.5 -75.5t6 -86v-795h-190z" />
    <glyph glyph-name="i" unicode="i" horiz-adv-x="368" 
d="M88 1167v199h193v-199h-193zM88 0v1018h193v-1018h-193z" />
    <glyph glyph-name="j" unicode="j" horiz-adv-x="395" 
d="M117 1167v199h190v-199h-190zM307 -14q0 -66 -6 -127.5t-51 -114.5q-41 -47 -99.5 -66.5t-119.5 -19.5q-23 0 -41.5 3t-38.5 7v185q16 -3 29.5 -5t29.5 -2q39 0 60.5 17.5t32 43t12.5 57.5t2 63v991h190v-1032z" />
    <glyph glyph-name="k" unicode="k" horiz-adv-x="765" 
d="M530 0l-141 475l-108 -172v-303h-193v1366h193v-756l229 408h217l-207 -332l225 -686h-215z" />
    <glyph glyph-name="l" unicode="l" horiz-adv-x="368" 
d="M88 0v1366h193v-1366h-193z" />
    <glyph glyph-name="m" unicode="m" horiz-adv-x="1206" 
d="M928 0v745q0 21 -1 41.5t-8.5 38t-22.5 28.5t-42 11q-47 0 -88 -33.5t-68 -68.5v-762h-190v745q0 21 -1 41.5t-8.5 38t-22.5 28.5t-42 11q-47 0 -87 -33.5t-66 -68.5v-762h-193v1018h193v-131q51 59 110 101t141 42q72 0 110 -39t50 -104q53 57 114.5 100t143.5 43
q53 0 86 -20.5t51.5 -53t24.5 -74.5t6 -87v-795h-190z" />
    <glyph glyph-name="n" unicode="n" 
d="M508 0v745q0 21 -1 41.5t-8.5 38t-22.5 28.5t-42 11q-47 0 -87 -33.5t-66 -68.5v-762h-193v1018h193v-131q51 59 110 101t141 42q52 0 84.5 -20.5t51 -53t24.5 -75.5t6 -86v-795h-190z" />
    <glyph glyph-name="o" unicode="o" 
d="M706 350q0 -80 -11.5 -154.5t-70.5 -134.5q-47 -47 -107.5 -64t-124.5 -17q-65 0 -124.5 18t-106.5 63q-60 56 -70 133.5t-10 155.5v316q0 39 1 77.5t9 75.5t24.5 71t45.5 64q47 47 107.5 65.5t123.5 18.5q66 0 125.5 -18.5t106.5 -65.5q30 -28 46.5 -63t24 -72
t9.5 -75.5t2 -77.5v-316zM515 678q0 33 -4 66.5t-16.5 60t-37 43t-65.5 16.5t-64.5 -17.5t-35.5 -44t-16.5 -59t-4.5 -65.5v-338q0 -33 4.5 -65.5t16.5 -59.5t35.5 -44t64.5 -17t65.5 16t37 43t16.5 60.5t4 66.5v338z" />
    <glyph glyph-name="p" unicode="p" horiz-adv-x="792" 
d="M711 387q0 -55 -4.5 -124.5t-24 -131t-61 -103.5t-117.5 -42q-68 0 -122 34.5t-101 79.5v-448h-193v1366h193v-103q47 48 101 81.5t122 33.5q76 0 117.5 -42t62 -103.5t24 -130t3.5 -123.5v-244zM518 659q0 31 -1 67t-10 66.5t-30.5 51t-64.5 20.5q-37 0 -70 -15t-61 -36
v-608q30 -23 62 -37t71 -14q41 0 62.5 21.5t30.5 52t10 66.5t1 64v301z" />
    <glyph glyph-name="q" unicode="q" horiz-adv-x="792" 
d="M511 -348v448q-47 -45 -102.5 -79.5t-122.5 -34.5q-78 0 -119 42t-60.5 103.5t-22.5 131t-3 124.5v244q0 55 3 123.5t22.5 130t60.5 103.5t119 42q67 0 122.5 -33.5t102.5 -81.5v103h191v-1366h-191zM511 813q-29 23 -62.5 37t-70.5 14q-41 0 -63.5 -21.5t-31.5 -53
t-10.5 -67.5t-1.5 -65v-297q0 -28 1.5 -64t11.5 -67.5t31.5 -53t62.5 -21.5q39 0 70.5 14t62.5 37v608z" />
    <glyph glyph-name="r" unicode="r" horiz-adv-x="550" 
d="M522 811q-22 10 -43.5 14t-46.5 4q-53 0 -83 -18t-45 -49t-19 -70t-4 -80v-612h-193v1018h193v-176q36 92 86.5 140t154.5 48v-219v0z" />
    <glyph glyph-name="s" unicode="s" horiz-adv-x="741" 
d="M702 281q0 -142 -88.5 -221.5t-225.5 -79.5q-72 0 -127 20t-97 57t-73 89.5t-51 117.5l178 64q10 -31 23.5 -63t33 -56.5t47 -39.5t66.5 -15q45 0 77 27.5t32 74.5q0 45 -33 78t-82 61.5t-105.5 58t-105.5 69.5t-82 95.5t-33 135.5q0 63 23.5 115.5t63.5 90t94.5 58
t115.5 20.5q129 0 207 -64.5t123 -180.5l-174 -76q-10 26 -23.5 53t-32 48.5t-44 33.5t-58.5 12q-41 0 -70.5 -23.5t-29.5 -66.5q0 -31 18.5 -54.5t45 -44t56 -35.5t52.5 -28q53 -28 109.5 -62t97.5 -77q39 -41 55.5 -90t16.5 -102z" />
    <glyph glyph-name="t" unicode="t" horiz-adv-x="559" 
d="M550 0q-32 -6 -63 -10t-64 -4q-59 0 -113.5 14t-94.5 61q-39 45 -43.5 106.5t-4.5 117.5v561h-145v172h145v278h193v-278h174v-172h-174v-541q0 -65 23.5 -105t95.5 -40q22 0 36.5 3t34.5 9v-172v0z" />
    <glyph glyph-name="u" unicode="u" 
d="M508 0v131q-49 -59 -110.5 -102t-141.5 -43q-53 0 -86 20.5t-51.5 53t-24.5 75.5t-6 86v797h193v-746q0 -20 1 -40.5t8 -38t21.5 -28.5t40.5 -11q47 0 88 32.5t68 69.5v762h190v-1018h-190z" />
    <glyph glyph-name="v" unicode="v" horiz-adv-x="718" 
d="M471 0h-201l-250 1018h203l145 -647l129 647h201z" />
    <glyph glyph-name="w" unicode="w" horiz-adv-x="1105" 
d="M866 0h-183l-131 625l-127 -625h-180l-219 1018h195l122 -635l125 635h174l132 -635l112 635h193z" />
    <glyph glyph-name="x" unicode="x" horiz-adv-x="753" 
d="M520 0l-146 360l-143 -360h-205l238 530l-222 488h207l127 -313l119 313h203l-211 -488l239 -530h-206z" />
    <glyph glyph-name="y" unicode="y" horiz-adv-x="724" 
d="M483 43q-12 -55 -26.5 -113.5t-38 -110.5t-61.5 -94t-97 -63q-52 -18 -104 -20t-105 -4v196q8 0 15 -1t15 -1q78 0 127.5 44t49.5 124q0 23 -5.5 44.5t-9.5 43.5l-223 930h201l149 -696l137 696h197z" />
    <glyph glyph-name="z" unicode="z" horiz-adv-x="698" 
d="M47 0v190l385 644h-352v184h571v-193l-385 -641h385v-184h-604z" />
    <glyph glyph-name="braceleft" unicode="{" horiz-adv-x="1024" 
d="M778 -387q-17 0 -32 -1t-32 -1q-84 0 -143.5 14.5t-98 48t-57 91t-18.5 145.5v332q0 69 -21.5 118.5t-95.5 67.5v152q70 16 93.5 62t23.5 112v348q0 155 71.5 219.5t225.5 64.5h41.5t42.5 -2v-159q-54 0 -91.5 -4t-61 -20.5t-35 -49.5t-11.5 -92v-318q0 -47 -4 -81.5
t-16.5 -62.5t-37 -51.5t-65.5 -47.5q78 -47 100.5 -103.5t22.5 -144.5v-307q0 -60 11.5 -94.5t35 -51t61 -20.5t91.5 -4v-160v0z" />
    <glyph glyph-name="bar" unicode="|" horiz-adv-x="1024" 
d="M419 -512v2048h184v-2048h-184z" />
    <glyph glyph-name="braceright" unicode="}" horiz-adv-x="1024" 
d="M772 418q-70 -17 -92.5 -63t-22.5 -111v-348q0 -158 -72.5 -221.5t-226.5 -63.5h-42t-42 2v160q53 0 91 4t61.5 20.5t35 49t11.5 92.5v317q0 35 5 68.5t15 66.5q17 43 41.5 64.5t63.5 44.5q-78 45 -101.5 101t-23.5 144v310q0 39 -5.5 83t-46.5 66q-28 17 -71 19t-76 2
v159q16 0 32.5 1t33.5 1q81 0 141.5 -14t99.5 -48t57.5 -92t18.5 -145v-331q0 -70 19.5 -119t95.5 -68v-151v0z" />
    <glyph glyph-name="asciitilde" unicode="~" horiz-adv-x="1366" 
d="M1177 1438q-24 -49 -53 -92t-64.5 -77t-82 -53.5t-107.5 -19.5q-53 0 -105.5 19.5t-104.5 42t-101 42t-97 19.5q-32 0 -56.5 -12.5t-45 -32t-36 -45t-30.5 -49.5l-106 67q25 47 49.5 92t58 80t76.5 56.5t105 21.5q57 0 110.5 -19.5t105.5 -42t101 -42t99 -19.5
q34 0 60 10.5t45 26.5t36.5 40t34.5 50l108 -63v0z" />
    <glyph glyph-name="dieresis" unicode="&#xa8;" horiz-adv-x="1024" 
 />
    <glyph glyph-name="copyright" unicode="&#xa9;" horiz-adv-x="1515" 
d="M1460 682q0 -145 -55.5 -273t-150.5 -223.5t-223 -150.5t-274 -55q-145 0 -273 55t-223 150.5t-150.5 223.5t-55.5 273t55.5 274t150.5 224.5t223 150.5t273 55q146 0 274 -55t223 -150.5t150.5 -224.5t55.5 -274zM1345 682q0 123 -45 233.5t-124 193.5t-186.5 132
t-232.5 49q-124 0 -232 -49t-186.5 -133t-123.5 -193.5t-45 -232.5t45 -232.5t123.5 -193.5t186.5 -133t232 -49q125 0 232.5 49t186.5 133t124 193.5t45 232.5zM1009 535q0 -121 -54 -198t-185 -77q-60 0 -111 20.5t-86 71.5q-33 47 -37 105.5t-4 113.5v230q0 43 2 89
t19 87q28 67 86.5 97t128.5 30q118 0 177.5 -68.5t59.5 -183.5v-27h-135q0 27 -3 55.5t-13.5 52t-30.5 38t-55 14.5q-37 0 -56.5 -14.5t-30 -37t-12.5 -51t-2 -55.5v-272q0 -29 2 -60.5t11.5 -57t31 -42t58.5 -16.5t58.5 18.5t31.5 45t12 58t2 60.5h135v-26z" />
    <glyph glyph-name="registered" unicode="&#xae;" horiz-adv-x="993" 
d="M899 1141q0 -84 -30 -162t-83 -137.5t-127 -95t-162 -35.5t-161.5 35.5t-127 95t-83 137.5t-29.5 162t29.5 161.5t83 137t127 94.5t161.5 35q86 0 160 -36t128 -95.5t84 -136t30 -160.5zM837 1141q0 71 -25.5 138t-70.5 118t-107.5 81.5t-136.5 30.5q-73 0 -136.5 -30.5
t-108.5 -81.5t-71 -118t-26 -138q0 -72 26 -139.5t71 -119t107.5 -82t137.5 -30.5q76 0 138.5 30.5t107.5 83t69.5 119t24.5 138.5zM549 915l-62 181h-35v-181h-82v451h117q66 0 102.5 -33t36.5 -98q0 -37 -13 -68.5t-48 -50.5l70 -201h-86zM542 1231q0 37 -17 49t-52 12
h-21v-123h21q37 0 53 11.5t16 50.5z" />
    <glyph glyph-name="acute" unicode="&#xb4;" horiz-adv-x="1024" 
 />
    <glyph glyph-name="paragraph" unicode="&#xb6;" horiz-adv-x="1024" 
d="M929 1435v-70h-127v-1365h-82v1365h-166v-1365h-84v738q-174 8 -275.5 102.5t-101.5 245.5q0 157 107.5 253t285.5 96h443z" />
    <glyph glyph-name="onequarter" unicode="&#xbc;" horiz-adv-x="1378" 
d="M1249 205v-205h-142v205h-270v135l262 479h150v-491h98v-123h-98zM481 -68h-107l512 1502h117zM241 547v616h-127v86q43 17 98.5 48.5t83.5 68.5h86v-819h-141zM1111 621l-147 -297h147v297z" />
    <glyph glyph-name="onehalf" unicode="&#xbd;" horiz-adv-x="1378" 
d="M1320 610q0 -61 -25.5 -121.5t-64.5 -117t-83 -107.5t-81 -96q-10 -10 -18 -22.5t-19 -22.5h273v-123h-440v119q28 35 72 87t89 108.5t83 112.5t55 97q14 41 14 88q0 39 -17.5 67t-60.5 28q-31 0 -48 -12.5t-25.5 -32t-10.5 -44t-2 -47.5h-141v33q0 111 60.5 169
t170.5 58q105 0 162 -58t57 -163zM481 -68h-107l512 1502h117zM241 547v616h-127v86q43 17 98.5 48.5t83.5 68.5h86v-819h-141z" />
    <glyph glyph-name="threequarters" unicode="&#xbe;" horiz-adv-x="1378" 
d="M1249 205v-205h-141v205h-269v135l261 479h149v-491h100v-123h-100zM483 -68h-106l512 1502h114zM510 788q0 -112 -56.5 -184t-175.5 -72q-104 0 -164.5 61.5t-60.5 166.5v28h143q2 -8 2 -22q2 -41 16.5 -75t65.5 -34q27 0 43.5 12.5t25.5 31t12 41t3 44.5
q0 72 -26.5 98.5t-98.5 28.5v127q66 2 92.5 19.5t26.5 87.5q0 41 -15.5 73.5t-62.5 32.5q-43 0 -64.5 -32.5t-10.5 -73.5h-142v20q0 99 62.5 155t158.5 56q107 0 159 -63.5t52 -165.5q0 -59 -17 -102t-75 -68q68 -21 87.5 -74t19.5 -117zM1112 621l-146 -297h146v297z" />
    <glyph glyph-name="Agrave" unicode="&#xc0;" horiz-adv-x="923" 
d="M401 1475l-147 182h198l95 -182h-146zM665 0l-57 297h-293l-53 -297h-207l262 1366h289l276 -1366h-217zM458 1104l-108 -612h221z" />
    <glyph glyph-name="Aacute" unicode="&#xc1;" horiz-adv-x="923" 
d="M508 1475h-144l92 182h199zM665 0l-57 297h-293l-53 -297h-207l262 1366h289l276 -1366h-217zM458 1104l-108 -612h221z" />
    <glyph glyph-name="Acircumflex" unicode="&#xc2;" horiz-adv-x="923" 
d="M526 1475l-65 69l-64 -69h-172l129 182h215l127 -182h-170zM665 0l-57 297h-293l-53 -297h-207l262 1366h289l276 -1366h-217zM458 1104l-108 -612h221z" />
    <glyph glyph-name="Atilde" unicode="&#xc3;" horiz-adv-x="923" 
d="M665 1509q-26 -16 -47.5 -25t-52.5 -9q-49 0 -94 20.5t-97 20.5q-34 0 -61 -7.5t-57 -23.5v141q30 16 57 23.5t61 7.5q52 0 97 -19.5t96 -19.5q31 0 51.5 9t46.5 26v-144zM665 0l-57 297h-293l-53 -297h-207l262 1366h289l276 -1366h-217zM458 1104l-108 -612h221z" />
    <glyph glyph-name="Egrave" unicode="&#xc8;" horiz-adv-x="763" 
d="M350 1475l-148 182h199l92 -182h-143zM104 0v1366h618v-195h-407v-360h301v-195h-301v-421h407v-195h-618z" />
    <glyph glyph-name="Eacute" unicode="&#xc9;" horiz-adv-x="763" 
d="M469 1475h-144l92 182h199zM104 0v1366h618v-195h-407v-360h301v-195h-301v-421h407v-195h-618z" />
    <glyph glyph-name="Ecircumflex" unicode="&#xca;" horiz-adv-x="763" 
d="M473 1475l-64 69l-63 -69h-172l129 182h213l129 -182h-172zM104 0v1366h618v-195h-407v-360h301v-195h-301v-421h407v-195h-618z" />
    <glyph glyph-name="Igrave" unicode="&#xcc;" horiz-adv-x="419" 
d="M149 1475l-147 182h199l94 -182h-146zM104 0v1366h211v-1366h-211z" />
    <glyph glyph-name="Iacute" unicode="&#xcd;" horiz-adv-x="419" 
d="M268 1475h-144l95 182h198zM104 0v1366h211v-1366h-211z" />
    <glyph glyph-name="Ograve" unicode="&#xd2;" horiz-adv-x="925" 
d="M403 1475l-147 182h199l92 -182h-144zM835 434q0 -88 -12 -169t-65 -154q-52 -72 -130.5 -101.5t-164.5 -29.5t-164 29.5t-131 101.5q-53 69 -65.5 154t-12.5 169v498q0 86 13.5 168t64.5 153q51 72 130 102.5t165 30.5q88 0 164.5 -30.5t130.5 -102.5q53 -69 65 -153
t12 -168v-498zM625 928q0 47 -2.5 95t-24.5 91q-21 37 -57.5 55.5t-77.5 18.5q-60 0 -92.5 -23.5t-48 -61.5t-18.5 -84t-3 -91v-490q0 -45 3 -91t18.5 -84t48 -61.5t92.5 -23.5q59 0 92 23.5t48 61.5t18.5 84t3.5 91v490z" />
    <glyph glyph-name="Oacute" unicode="&#xd3;" horiz-adv-x="925" 
d="M522 1475h-143l92 182h199zM835 434q0 -88 -12 -169t-65 -154q-52 -72 -130.5 -101.5t-164.5 -29.5t-164 29.5t-131 101.5q-53 69 -65.5 154t-12.5 169v498q0 86 13.5 168t64.5 153q51 72 130 102.5t165 30.5q88 0 164.5 -30.5t130.5 -102.5q53 -69 65 -153t12 -168v-498
zM625 928q0 47 -2.5 95t-24.5 91q-21 37 -57.5 55.5t-77.5 18.5q-60 0 -92.5 -23.5t-48 -61.5t-18.5 -84t-3 -91v-490q0 -45 3 -91t18.5 -84t48 -61.5t92.5 -23.5q59 0 92 23.5t48 61.5t18.5 84t3.5 91v490z" />
    <glyph glyph-name="Ocircumflex" unicode="&#xd4;" horiz-adv-x="925" 
d="M526 1475l-63 69l-64 -69h-172l129 182h213l129 -182h-172zM835 434q0 -88 -12 -169t-65 -154q-52 -72 -130.5 -101.5t-164.5 -29.5t-164 29.5t-131 101.5q-53 69 -65.5 154t-12.5 169v498q0 86 13.5 168t64.5 153q51 72 130 102.5t165 30.5q88 0 164.5 -30.5
t130.5 -102.5q53 -69 65 -153t12 -168v-498zM625 928q0 47 -2.5 95t-24.5 91q-21 37 -57.5 55.5t-77.5 18.5q-60 0 -92.5 -23.5t-48 -61.5t-18.5 -84t-3 -91v-490q0 -45 3 -91t18.5 -84t48 -61.5t92.5 -23.5q59 0 92 23.5t48 61.5t18.5 84t3.5 91v490z" />
    <glyph glyph-name="Otilde" unicode="&#xd5;" horiz-adv-x="925" 
d="M668 1509q-27 -14 -48.5 -24t-52.5 -10q-49 0 -94 20.5t-96 20.5q-35 0 -61.5 -7.5t-57.5 -23.5v141q31 16 57.5 23.5t61.5 7.5q51 0 96 -19.5t94 -19.5q31 0 52.5 9t48.5 26v-144zM835 434q0 -88 -12 -169t-65 -154q-52 -72 -130.5 -101.5t-164.5 -29.5t-164 29.5
t-131 101.5q-53 69 -65.5 154t-12.5 169v498q0 86 13.5 168t64.5 153q51 72 130 102.5t165 30.5q88 0 164.5 -30.5t130.5 -102.5q53 -69 65 -153t12 -168v-498zM625 928q0 47 -2.5 95t-24.5 91q-21 37 -57.5 55.5t-77.5 18.5q-60 0 -92.5 -23.5t-48 -61.5t-18.5 -84t-3 -91
v-490q0 -45 3 -91t18.5 -84t48 -61.5t92.5 -23.5q59 0 92 23.5t48 61.5t18.5 84t3.5 91v490z" />
    <glyph glyph-name="Ugrave" unicode="&#xd9;" horiz-adv-x="929" 
d="M405 1475l-147 182h198l92 -182h-143zM825 440q0 -90 -11.5 -177t-66.5 -161q-49 -65 -126 -93.5t-157 -28.5q-84 0 -156.5 28.5t-125.5 93.5q-55 72 -66.5 162t-11.5 176v926h211v-960q0 -41 4 -82t19.5 -74t45 -52.5t80.5 -19.5q52 0 81.5 19.5t45 52.5t19.5 74t4 82
v960h211v-926z" />
    <glyph glyph-name="Uacute" unicode="&#xda;" horiz-adv-x="929" 
d="M524 1475h-144l93 182h198zM825 440q0 -90 -11.5 -177t-66.5 -161q-49 -65 -126 -93.5t-157 -28.5q-84 0 -156.5 28.5t-125.5 93.5q-55 72 -66.5 162t-11.5 176v926h211v-960q0 -41 4 -82t19.5 -74t45 -52.5t80.5 -19.5q52 0 81.5 19.5t45 52.5t19.5 74t4 82v960h211
v-926z" />
    <glyph glyph-name="Yacute" unicode="&#xdd;" horiz-adv-x="901" 
d="M552 532v-532h-213v532l-305 834h231l183 -578l190 578h230zM523 1475h-143l92 182h199z" />
    <glyph glyph-name="agrave" unicode="&#xe0;" horiz-adv-x="811" 
d="M345 1184l-147 182h196l95 -182h-144zM528 0q-11 29 -14 58.5t-3 60.5q-49 -53 -101 -93t-130 -40q-58 0 -96.5 23.5t-63.5 62.5t-35 87t-10 97q0 68 19.5 122t68.5 101q70 66 166 108t182 79v53q0 26 -3 53t-13 47.5t-30.5 32.5t-53.5 12q-66 0 -88.5 -44t-24.5 -101
h-203q13 153 101 232t241 79q60 0 114 -15.5t95 -62.5q43 -47 49.5 -105.5t6.5 -117.5v-453q0 -69 2 -138.5t20 -137.5h-196zM511 524q-37 -18 -78 -42.5t-75.5 -56.5t-58 -71t-23.5 -86q0 -43 24.5 -78.5t71.5 -35.5t82 27.5t57 64.5v278z" />
    <glyph glyph-name="aacute" unicode="&#xe1;" horiz-adv-x="811" 
d="M476 1184h-143l94 182h199zM528 0q-11 29 -14 58.5t-3 60.5q-49 -53 -101 -93t-130 -40q-58 0 -96.5 23.5t-63.5 62.5t-35 87t-10 97q0 68 19.5 122t68.5 101q70 66 166 108t182 79v53q0 26 -3 53t-13 47.5t-30.5 32.5t-53.5 12q-66 0 -88.5 -44t-24.5 -101h-203
q13 153 101 232t241 79q60 0 114 -15.5t95 -62.5q43 -47 49.5 -105.5t6.5 -117.5v-453q0 -69 2 -138.5t20 -137.5h-196zM511 524q-37 -18 -78 -42.5t-75.5 -56.5t-58 -71t-23.5 -86q0 -43 24.5 -78.5t71.5 -35.5t82 27.5t57 64.5v278z" />
    <glyph glyph-name="acircumflex" unicode="&#xe2;" horiz-adv-x="811" 
d="M483 1184l-66 69l-63 -69h-173l130 182h215l129 -182h-172zM528 0q-11 29 -14 58.5t-3 60.5q-49 -53 -101 -93t-130 -40q-58 0 -96.5 23.5t-63.5 62.5t-35 87t-10 97q0 68 19.5 122t68.5 101q70 66 166 108t182 79v53q0 26 -3 53t-13 47.5t-30.5 32.5t-53.5 12
q-66 0 -88.5 -44t-24.5 -101h-203q13 153 101 232t241 79q60 0 114 -15.5t95 -62.5q43 -47 49.5 -105.5t6.5 -117.5v-453q0 -69 2 -138.5t20 -137.5h-196zM511 524q-37 -18 -78 -42.5t-75.5 -56.5t-58 -71t-23.5 -86q0 -43 24.5 -78.5t71.5 -35.5t82 27.5t57 64.5v278z" />
    <glyph glyph-name="atilde" unicode="&#xe3;" horiz-adv-x="811" 
d="M624 1219q-27 -15 -49.5 -25t-50.5 -10q-52 0 -97 20.5t-96 20.5q-35 0 -61.5 -7.5t-57.5 -23.5v141q31 17 57.5 24t61.5 7q51 0 96 -19.5t97 -19.5q30 0 51.5 9.5t48.5 25.5v-143zM528 0q-11 29 -14 58.5t-3 60.5q-49 -53 -101 -93t-130 -40q-58 0 -96.5 23.5
t-63.5 62.5t-35 87t-10 97q0 68 19.5 122t68.5 101q70 66 166 108t182 79v53q0 26 -3 53t-13 47.5t-30.5 32.5t-53.5 12q-66 0 -88.5 -44t-24.5 -101h-203q13 153 101 232t241 79q60 0 114 -15.5t95 -62.5q43 -47 49.5 -105.5t6.5 -117.5v-453q0 -69 2 -138.5t20 -137.5
h-196zM511 524q-37 -18 -78 -42.5t-75.5 -56.5t-58 -71t-23.5 -86q0 -43 24.5 -78.5t71.5 -35.5t82 27.5t57 64.5v278z" />
    <glyph glyph-name="egrave" unicode="&#xe8;" horiz-adv-x="796" 
d="M325 1184l-148 182h199l92 -182h-143zM714 315q0 -67 -11.5 -128.5t-58.5 -114.5q-47 -54 -111.5 -73t-132.5 -19q-96 0 -157.5 27.5t-97 77.5t-50 119.5t-14.5 155.5v306q0 79 11.5 154t70.5 134q47 45 107.5 64.5t123.5 19.5q70 0 131.5 -21.5t108.5 -72.5
q29 -31 44 -66.5t23.5 -73.5t9.5 -79t1 -80v-168h-441v-92q0 -37 1.5 -78t13.5 -74.5t38.5 -56t78.5 -22.5q43 0 67.5 18t36.5 47t14 63.5t2 69.5h191v-37zM521 700q0 35 -4 66t-18.5 54.5t-39 36.5t-65.5 13q-39 0 -63.5 -14t-37.5 -37.5t-17.5 -54.5t-4.5 -64v-55h250v55z
" />
    <glyph glyph-name="eacute" unicode="&#xe9;" horiz-adv-x="796" 
d="M458 1184h-144l93 182h198zM714 315q0 -67 -11.5 -128.5t-58.5 -114.5q-47 -54 -111.5 -73t-132.5 -19q-96 0 -157.5 27.5t-97 77.5t-50 119.5t-14.5 155.5v306q0 79 11.5 154t70.5 134q47 45 107.5 64.5t123.5 19.5q70 0 131.5 -21.5t108.5 -72.5q29 -31 44 -66.5
t23.5 -73.5t9.5 -79t1 -80v-168h-441v-92q0 -37 1.5 -78t13.5 -74.5t38.5 -56t78.5 -22.5q43 0 67.5 18t36.5 47t14 63.5t2 69.5h191v-37zM521 700q0 35 -4 66t-18.5 54.5t-39 36.5t-65.5 13q-39 0 -63.5 -14t-37.5 -37.5t-17.5 -54.5t-4.5 -64v-55h250v55z" />
    <glyph glyph-name="ecircumflex" unicode="&#xea;" horiz-adv-x="796" 
d="M462 1184l-64 69l-65 -69h-170l129 182h213l129 -182h-172zM714 315q0 -67 -11.5 -128.5t-58.5 -114.5q-47 -54 -111.5 -73t-132.5 -19q-96 0 -157.5 27.5t-97 77.5t-50 119.5t-14.5 155.5v306q0 79 11.5 154t70.5 134q47 45 107.5 64.5t123.5 19.5q70 0 131.5 -21.5
t108.5 -72.5q29 -31 44 -66.5t23.5 -73.5t9.5 -79t1 -80v-168h-441v-92q0 -37 1.5 -78t13.5 -74.5t38.5 -56t78.5 -22.5q43 0 67.5 18t36.5 47t14 63.5t2 69.5h191v-37zM521 700q0 35 -4 66t-18.5 54.5t-39 36.5t-65.5 13q-39 0 -63.5 -14t-37.5 -37.5t-17.5 -54.5t-4.5 -64
v-55h250v55z" />
    <glyph glyph-name="igrave" unicode="&#xec;" horiz-adv-x="368" 
d="M140 1184l-150 182h199l94 -182h-143zM88 0v1018h193v-1018h-193z" />
    <glyph glyph-name="iacute" unicode="&#xed;" horiz-adv-x="368" 
d="M229 1184h-143l94 182h199zM88 0v1018h193v-1018h-193z" />
    <glyph glyph-name="ograve" unicode="&#xf2;" 
d="M321 1184l-148 182h197l94 -182h-143zM706 350q0 -80 -11.5 -154.5t-70.5 -134.5q-47 -47 -107.5 -64t-124.5 -17q-65 0 -124.5 18t-106.5 63q-60 56 -70 133.5t-10 155.5v316q0 39 1 77.5t9 75.5t24.5 71t45.5 64q47 47 107.5 65.5t123.5 18.5q66 0 125.5 -18.5
t106.5 -65.5q30 -28 46.5 -63t24 -72t9.5 -75.5t2 -77.5v-316zM515 678q0 33 -4 66.5t-16.5 60t-37 43t-65.5 16.5t-64.5 -17.5t-35.5 -44t-16.5 -59t-4.5 -65.5v-338q0 -33 4.5 -65.5t16.5 -59.5t35.5 -44t64.5 -17t65.5 16t37 43t16.5 60.5t4 66.5v338z" />
    <glyph glyph-name="oacute" unicode="&#xf3;" 
d="M452 1184h-144l95 182h198zM706 350q0 -80 -11.5 -154.5t-70.5 -134.5q-47 -47 -107.5 -64t-124.5 -17q-65 0 -124.5 18t-106.5 63q-60 56 -70 133.5t-10 155.5v316q0 39 1 77.5t9 75.5t24.5 71t45.5 64q47 47 107.5 65.5t123.5 18.5q66 0 125.5 -18.5t106.5 -65.5
q30 -28 46.5 -63t24 -72t9.5 -75.5t2 -77.5v-316zM515 678q0 33 -4 66.5t-16.5 60t-37 43t-65.5 16.5t-64.5 -17.5t-35.5 -44t-16.5 -59t-4.5 -65.5v-338q0 -33 4.5 -65.5t16.5 -59.5t35.5 -44t64.5 -17t65.5 16t37 43t16.5 60.5t4 66.5v338z" />
    <glyph glyph-name="ocircumflex" unicode="&#xf4;" 
d="M458 1184l-66 69l-63 -69h-172l129 182h215l129 -182h-172zM706 350q0 -80 -11.5 -154.5t-70.5 -134.5q-47 -47 -107.5 -64t-124.5 -17q-65 0 -124.5 18t-106.5 63q-60 56 -70 133.5t-10 155.5v316q0 39 1 77.5t9 75.5t24.5 71t45.5 64q47 47 107.5 65.5t123.5 18.5
q66 0 125.5 -18.5t106.5 -65.5q30 -28 46.5 -63t24 -72t9.5 -75.5t2 -77.5v-316zM515 678q0 33 -4 66.5t-16.5 60t-37 43t-65.5 16.5t-64.5 -17.5t-35.5 -44t-16.5 -59t-4.5 -65.5v-338q0 -33 4.5 -65.5t16.5 -59.5t35.5 -44t64.5 -17t65.5 16t37 43t16.5 60.5t4 66.5v338z
" />
    <glyph glyph-name="otilde" unicode="&#xf5;" 
d="M597 1219q-24 -15 -47 -25t-51 -10q-49 0 -95.5 20.5t-97.5 20.5q-35 0 -61.5 -7.5t-57.5 -23.5v141q31 17 57.5 24t61.5 7q51 0 96.5 -19.5t96.5 -19.5q31 0 51 9.5t47 25.5v-143zM706 350q0 -80 -11.5 -154.5t-70.5 -134.5q-47 -47 -107.5 -64t-124.5 -17
q-65 0 -124.5 18t-106.5 63q-60 56 -70 133.5t-10 155.5v316q0 39 1 77.5t9 75.5t24.5 71t45.5 64q47 47 107.5 65.5t123.5 18.5q66 0 125.5 -18.5t106.5 -65.5q30 -28 46.5 -63t24 -72t9.5 -75.5t2 -77.5v-316zM515 678q0 33 -4 66.5t-16.5 60t-37 43t-65.5 16.5
t-64.5 -17.5t-35.5 -44t-16.5 -59t-4.5 -65.5v-338q0 -33 4.5 -65.5t16.5 -59.5t35.5 -44t64.5 -17t65.5 16t37 43t16.5 60.5t4 66.5v338z" />
    <glyph glyph-name="divide" unicode="&#xf7;" horiz-adv-x="1706" 
 />
    <glyph glyph-name="glyph216" unicode="&#xf9;" 
d="M334 1184l-148 182h199l94 -182h-145zM508 0v131q-49 -59 -110.5 -102t-141.5 -43q-53 0 -86 20.5t-51.5 53t-24.5 75.5t-6 86v797h193v-746q0 -20 1 -40.5t8 -38t21.5 -28.5t40.5 -11q47 0 88 32.5t68 69.5v762h190v-1018h-190z" />
    <glyph glyph-name="glyph217" unicode="&#xfa;" 
d="M453 1184h-144l94 182h199zM508 0v131q-49 -59 -110.5 -102t-141.5 -43q-53 0 -86 20.5t-51.5 53t-24.5 75.5t-6 86v797h193v-746q0 -20 1 -40.5t8 -38t21.5 -28.5t40.5 -11q47 0 88 32.5t68 69.5v762h190v-1018h-190z" />
    <glyph glyph-name="glyph234" unicode="&#xfd;" horiz-adv-x="724" 
d="M483 43q-12 -55 -26.5 -113.5t-38 -110.5t-61.5 -94t-97 -63q-52 -18 -104 -20t-105 -4v196q8 0 15 -1t15 -1q78 0 127.5 44t49.5 124q0 23 -5.5 44.5t-9.5 43.5l-223 930h201l149 -696l137 696h197zM452 1184h-143l94 182h199z" />
    <glyph glyph-name="Abreve" unicode="&#x102;" horiz-adv-x="923" 
d="M665 0l-57 297h-293l-53 -297h-207l262 1366h289l276 -1366h-217zM458 1104l-108 -612h221zM696 1578q-73 -153 -232.5 -159t-238.5 159h172q67 -78 129 0h170z" />
    <glyph glyph-name="abreve" unicode="&#x103;" horiz-adv-x="811" 
d="M528 0q-11 29 -14 58.5t-3 60.5q-49 -53 -101 -93t-130 -40q-58 0 -96.5 23.5t-63.5 62.5t-35 87t-10 97q0 68 19.5 122t68.5 101q70 66 166 108t182 79v53q0 26 -3 53t-13 47.5t-30.5 32.5t-53.5 12q-66 0 -88.5 -44t-24.5 -101h-203q13 153 101 232t241 79
q60 0 114 -15.5t95 -62.5q43 -47 49.5 -105.5t6.5 -117.5v-453q0 -69 2 -138.5t20 -137.5h-196zM511 524q-37 -18 -78 -42.5t-75.5 -56.5t-58 -71t-23.5 -86q0 -43 24.5 -78.5t71.5 -35.5t82 27.5t57 64.5v278zM646 1265q-73 -153 -232.5 -159t-238.5 159h172q66 -78 129 0
h170z" />
    <glyph glyph-name="Ccaron" unicode="&#x10c;" horiz-adv-x="1274" 
 />
    <glyph glyph-name="ccaron" unicode="&#x10d;" horiz-adv-x="922" 
 />
    <glyph glyph-name="Dslash" unicode="&#x110;" horiz-adv-x="929" 
d="M839 426q0 -205 -91 -315.5t-304 -110.5h-334v616h-47v195h47v555h334q213 0 304 -111.5t91 -316.5v-512zM628 881q0 57 -6 110t-26.5 93t-61.5 63.5t-111 23.5h-102v-360h158v-195h-158v-421h102q70 0 111 23.5t61.5 63.5t26.5 92t6 111v396z" />
    <glyph glyph-name="dcroat" unicode="&#x111;" horiz-adv-x="792" 
d="M511 813q-29 21 -62.5 36t-70.5 15q-43 0 -65.5 -23.5t-32 -57t-9.5 -72.5v-68v-285q0 -28 1 -64t11.5 -66.5t32 -52t62.5 -21.5q39 0 70.5 14t62.5 37v608zM701 1088v-1088h-190v100q-47 -45 -102.5 -79.5t-122.5 -34.5q-78 0 -119 42t-60.5 103.5t-22.5 131t-3 124.5
v244q0 55 3 123.5t21.5 130t60.5 103.5t120 42q67 0 122.5 -34.5t102.5 -80.5v173h-104v169h104v109h190v-109h45v-169h-45z" />
    <glyph glyph-name="Itilde" unicode="&#x128;" horiz-adv-x="419" 
d="M104 0v1366h211v-1366h-211zM415 1509q-27 -16 -48.5 -25t-52.5 -9q-49 0 -94 20.5t-96 20.5q-35 0 -61.5 -7.5t-57.5 -23.5v141q31 16 57.5 23.5t61.5 7.5q51 0 96 -19.5t96 -19.5q31 0 51.5 9t47.5 26v-144z" />
    <glyph glyph-name="itilde" unicode="&#x129;" horiz-adv-x="368" 
d="M88 0v1018h193v-1018h-193zM414 1178q-27 -15 -49.5 -25t-51.5 -10q-51 0 -96 20.5t-96 20.5q-35 0 -61.5 -7.5t-57.5 -23.5v141q31 17 57.5 24t61.5 7q51 0 96 -19.5t96 -19.5q31 0 52.5 9.5t48.5 25.5v-143z" />
    <glyph glyph-name="Utilde" unicode="&#x168;" horiz-adv-x="929" 
d="M825 440q0 -90 -11.5 -177t-66.5 -161q-49 -65 -126 -93.5t-157 -28.5q-84 0 -156.5 28.5t-125.5 93.5q-55 72 -66.5 162t-11.5 176v926h211v-960q0 -41 4 -82t19.5 -74t45 -52.5t80.5 -19.5q52 0 81.5 19.5t45 52.5t19.5 74t4 82v960h211v-926v0zM667 1509
q-26 -14 -47.5 -24t-52.5 -10q-49 0 -94 20.5t-97 20.5q-34 0 -61 -7.5t-57 -23.5v141q30 16 57 23.5t61 7.5q52 0 97 -19.5t94 -19.5q31 0 52.5 9t47.5 26v-144z" />
    <glyph glyph-name="utilde" unicode="&#x169;" 
d="M508 0v131q-49 -59 -110.5 -102t-141.5 -43q-53 0 -86 20.5t-51.5 53t-24.5 75.5t-6 86v797h193v-746q0 -20 1 -40.5t8 -38t21.5 -28.5t40.5 -11q47 0 88 32.5t68 69.5v762h190v-1018h-190zM598 1219q-25 -15 -47.5 -25t-50.5 -10q-50 0 -96 20.5t-97 20.5
q-35 0 -61.5 -7.5t-57.5 -23.5v141q31 17 57.5 24t61.5 7q51 0 96 -19.5t97 -19.5q30 0 50.5 9.5t47.5 25.5v-143z" />
    <glyph glyph-name="Ohorn" unicode="&#x1a0;" horiz-adv-x="925" 
d="M625 928q0 47 -2 95t-25 91q-20 37 -57 55.5t-78 18.5q-60 0 -92.5 -23.5t-48 -61.5t-18.5 -84t-3 -91v-490q0 -45 3 -91t18.5 -84t48 -61.5t92.5 -23.5q59 0 92 23.5t48 61.5t18.5 84t3.5 91v490zM762 1247q50 -66 62 -147q12 -84 12 -168v-498q0 -88 -12.5 -169
t-65.5 -154q-51 -72 -130 -101.5t-165 -29.5t-164 29.5t-131 101.5q-53 69 -65.5 154t-12.5 169v498q0 86 13.5 168t64.5 153q51 72 130 102.5t165 30.5q88 0 165 -30q47 -19 85 -53l31 97h-71v169h153v-169z" />
    <glyph glyph-name="ohorn" unicode="&#x1a1;" 
d="M515 678q0 33 -4 66.5t-16.5 60t-37 43t-65.5 16.5t-64.5 -17.5t-35.5 -44t-16.5 -59t-4.5 -65.5v-338q0 -33 4.5 -65.5t16.5 -59.5t35.5 -44t64.5 -17t65.5 16t37 43t16.5 60.5t4 66.5v338zM665 902q3 -5 6 -11q16 -35 23 -72t9.5 -75.5t2.5 -77.5v-316
q0 -80 -11.5 -154.5t-70.5 -134.5q-47 -47 -107.5 -64t-124.5 -17q-65 0 -124.5 18t-106.5 63q-60 56 -70 133.5t-10 155.5v316q0 39 1 77.5t9 75.5t24.5 71t45.5 64q47 47 107.5 65.5t123.5 18.5q66 0 126 -18q54 -17 98 -59l32 98h-71v169h153v-169z" />
    <glyph glyph-name="Uhorn" unicode="&#x1af;" horiz-adv-x="929" 
d="M825 1261v-821q0 -90 -11 -177t-66 -161q-50 -65 -126.5 -93.5t-156.5 -28.5q-84 0 -156.5 28.5t-126.5 93.5q-55 72 -66.5 162t-11.5 176v926h211v-960q0 -41 4.5 -82t19.5 -74t45 -52.5t81 -19.5t80.5 19.5t45 52.5t19.5 74t4 82v960h176l11 34h-71v169h153v-169z" />
    <glyph glyph-name="uhorn" unicode="&#x1b0;" 
d="M698 884v-884h-190v131q-49 -59 -110.5 -102t-141.5 -43q-53 0 -86 20.5t-51.5 53t-24.5 75.5t-6 86v797h193v-746q0 -20 1 -40.5t8 -38t21.5 -28.5t40.5 -11q47 0 88 32.5t68 69.5v762h168l13 41h-71v169h153v-169z" />
    <glyph glyph-name="uni1EA0" unicode="&#x1ea0;" horiz-adv-x="923" 
d="M380 -302v182h178v-182h-178zM665 0l-57 297h-293l-53 -297h-207l262 1366h289l276 -1366h-217zM458 1104l-108 -612h221z" />
    <glyph glyph-name="uni1EA1" unicode="&#x1ea1;" horiz-adv-x="811" 
d="M528 0q-11 29 -14 58.5t-3 60.5q-49 -53 -101 -93t-130 -40q-58 0 -96.5 23.5t-63.5 62.5t-35 87t-10 97q0 68 19.5 122t68.5 101q70 66 166 108t182 79v53q0 26 -3 53t-13 47.5t-30.5 32.5t-53.5 12q-66 0 -88.5 -44t-24.5 -101h-203q13 153 101 232t241 79
q60 0 114 -15.5t95 -62.5q43 -47 49.5 -105.5t6.5 -117.5v-453q0 -69 2 -138.5t20 -137.5h-196zM511 524q-37 -18 -78 -42.5t-75.5 -56.5t-58 -71t-23.5 -86q0 -43 24.5 -78.5t71.5 -35.5t82 27.5t57 64.5v278zM343 -302v182h178v-182h-178z" />
    <glyph glyph-name="uni1EA2" unicode="&#x1ea2;" horiz-adv-x="923" 
d="M665 0l-57 297h-293l-53 -297h-207l262 1366h289l276 -1366h-217zM458 1104l-108 -612h221zM396 1420q2 19 4 33q5 25 15 49.5t22.5 49t28.5 54.5q11 17 20 37t9 40q0 21 -8.5 30t-21.5 9q-9 0 -17.5 -6t-16.5 -16.5t-13.5 -25t-13.5 -39.5l-123 37q22 69 64.5 109.5
t125.5 40.5q33 0 63 -10t51.5 -28.5t33.5 -44.5t12 -56q0 -39 -16 -67.5t-35 -59.5q-20 -30 -33.5 -51.5t-21.5 -44.5q-5 -14 -9 -40h-120z" />
    <glyph glyph-name="uni1EA3" unicode="&#x1ea3;" horiz-adv-x="811" 
d="M528 0q-11 29 -14 58.5t-3 60.5q-49 -53 -101 -93t-130 -40q-58 0 -96.5 23.5t-63.5 62.5t-35 87t-10 97q0 68 19.5 122t68.5 101q70 66 166 108t182 79v53q0 26 -3 53t-13 47.5t-30.5 32.5t-53.5 12q-66 0 -88.5 -44t-24.5 -101h-203q13 153 101 232t241 79
q60 0 114 -15.5t95 -62.5q43 -47 49.5 -105.5t6.5 -117.5v-453q0 -69 2 -138.5t20 -137.5h-196zM511 524q-37 -18 -78 -42.5t-75.5 -56.5t-58 -71t-23.5 -86q0 -43 24.5 -78.5t71.5 -35.5t82 27.5t57 64.5v278zM356 1098q1 19 4 33q4 25 14 49.5t23 49t28 54.5q12 17 21 37
t9 40q0 21 -9 30t-21 9q-9 0 -17.5 -6t-16.5 -16.5t-14 -25t-13 -39.5l-123 37q22 69 64 109.5t125 40.5q34 0 63.5 -10t51 -28.5t33.5 -44.5t12 -56q0 -39 -15.5 -67.5t-35.5 -59.5q-19 -30 -33 -51.5t-21 -44.5q-5 -14 -9 -40h-120z" />
    <glyph glyph-name="uni1EA4" unicode="&#x1ea4;" horiz-adv-x="923" 
d="M526 1475l-65 69l-64 -69h-172l129 182h215l127 -182h-170zM665 0l-57 297h-293l-53 -297h-207l262 1366h289l276 -1366h-217zM458 1104l-108 -612h221zM391 1699l94 182h199l-148 -182h-145z" />
    <glyph glyph-name="uni1EA5" unicode="&#x1ea5;" horiz-adv-x="811" 
d="M483 1184l-66 69l-63 -69h-173l130 182h215l129 -182h-172zM528 0q-11 29 -14 58.5t-3 60.5q-49 -53 -101 -93t-130 -40q-58 0 -96.5 23.5t-63.5 62.5t-35 87t-10 97q0 68 19.5 122t68.5 101q70 66 166 108t182 79v53q0 26 -3 53t-13 47.5t-30.5 32.5t-53.5 12
q-66 0 -88.5 -44t-24.5 -101h-203q13 153 101 232t241 79q60 0 114 -15.5t95 -62.5q43 -47 49.5 -105.5t6.5 -117.5v-453q0 -69 2 -138.5t20 -137.5h-196zM511 524q-37 -18 -78 -42.5t-75.5 -56.5t-58 -71t-23.5 -86q0 -43 24.5 -78.5t71.5 -35.5t82 27.5t57 64.5v278z
M359 1414l94 182h197l-148 -182h-143z" />
    <glyph glyph-name="uni1EA6" unicode="&#x1ea6;" horiz-adv-x="923" 
d="M526 1475l-65 69l-64 -69h-172l129 182h215l127 -182h-170zM665 0l-57 297h-293l-53 -297h-207l262 1366h289l276 -1366h-217zM458 1104l-108 -612h221zM417 1689l-147 182h198l95 -182h-146z" />
    <glyph glyph-name="uni1EA7" unicode="&#x1ea7;" horiz-adv-x="811" 
d="M483 1184l-66 69l-63 -69h-173l130 182h215l129 -182h-172zM528 0q-11 29 -14 58.5t-3 60.5q-49 -53 -101 -93t-130 -40q-58 0 -96.5 23.5t-63.5 62.5t-35 87t-10 97q0 68 19.5 122t68.5 101q70 66 166 108t182 79v53q0 26 -3 53t-13 47.5t-30.5 32.5t-53.5 12
q-66 0 -88.5 -44t-24.5 -101h-203q13 153 101 232t241 79q60 0 114 -15.5t95 -62.5q43 -47 49.5 -105.5t6.5 -117.5v-453q0 -69 2 -138.5t20 -137.5h-196zM511 524q-37 -18 -78 -42.5t-75.5 -56.5t-58 -71t-23.5 -86q0 -43 24.5 -78.5t71.5 -35.5t82 27.5t57 64.5v278z
M345 1414l-147 182h196l95 -182h-144z" />
    <glyph glyph-name="uni1EA8" unicode="&#x1ea8;" horiz-adv-x="923" 
d="M526 1475l-65 69l-64 -69h-172l129 182h215l127 -182h-170zM665 0l-57 297h-293l-53 -297h-207l262 1366h289l276 -1366h-217zM458 1104l-108 -612h221zM617 1620q2 19 4 33q5 25 15 49.5t22.5 49t28.5 54.5q11 17 20 37t9 40q0 21 -8.5 30t-21.5 9q-9 0 -17.5 -6
t-16.5 -16.5t-13.5 -25t-13.5 -39.5l-123 37q22 69 64.5 109.5t125.5 40.5q33 0 63 -10t51.5 -28.5t33.5 -44.5t12 -56q0 -39 -16 -67.5t-35 -59.5q-20 -30 -33.5 -51.5t-21.5 -44.5q-5 -14 -9 -40h-120z" />
    <glyph glyph-name="uni1EA9" unicode="&#x1ea9;" horiz-adv-x="811" 
d="M483 1184l-66 69l-63 -69h-173l130 182h215l129 -182h-172zM528 0q-11 29 -14 58.5t-3 60.5q-49 -53 -101 -93t-130 -40q-58 0 -96.5 23.5t-63.5 62.5t-35 87t-10 97q0 68 19.5 122t68.5 101q70 66 166 108t182 79v53q0 26 -3 53t-13 47.5t-30.5 32.5t-53.5 12
q-66 0 -88.5 -44t-24.5 -101h-203q13 153 101 232t241 79q60 0 114 -15.5t95 -62.5q43 -47 49.5 -105.5t6.5 -117.5v-453q0 -69 2 -138.5t20 -137.5h-196zM511 524q-37 -18 -78 -42.5t-75.5 -56.5t-58 -71t-23.5 -86q0 -43 24.5 -78.5t71.5 -35.5t82 27.5t57 64.5v278z
M597 1309q1 19 4 33q4 25 14 49.5t23 49t28 54.5q12 17 21 37t9 40q0 21 -9 30t-21 9q-9 0 -17.5 -6t-16.5 -16.5t-14 -25t-13 -39.5l-123 37q22 69 64 109.5t125 40.5q34 0 63.5 -10t51 -28.5t33.5 -44.5t12 -56q0 -39 -15.5 -67.5t-35.5 -59.5q-19 -30 -33 -51.5
t-21 -44.5q-5 -14 -9 -40h-120z" />
    <glyph glyph-name="uni1EAA" unicode="&#x1eaa;" horiz-adv-x="923" 
d="M526 1475l-65 69l-64 -69h-172l129 182h215l127 -182h-170zM665 0l-57 297h-293l-53 -297h-207l262 1366h289l276 -1366h-217zM458 1104l-108 -612h221zM755 1730q-26 -16 -47.5 -25t-52.5 -9q-49 0 -94 20.5t-97 20.5q-34 0 -61 -7.5t-57 -23.5v141q30 16 57 23.5
t61 7.5q52 0 97 -19.5t96 -19.5q31 0 51.5 9t46.5 26v-144z" />
    <glyph glyph-name="uni1EAB" unicode="&#x1eab;" horiz-adv-x="811" 
d="M483 1184l-66 69l-63 -69h-173l130 182h215l129 -182h-172zM528 0q-11 29 -14 58.5t-3 60.5q-49 -53 -101 -93t-130 -40q-58 0 -96.5 23.5t-63.5 62.5t-35 87t-10 97q0 68 19.5 122t68.5 101q70 66 166 108t182 79v53q0 26 -3 53t-13 47.5t-30.5 32.5t-53.5 12
q-66 0 -88.5 -44t-24.5 -101h-203q13 153 101 232t241 79q60 0 114 -15.5t95 -62.5q43 -47 49.5 -105.5t6.5 -117.5v-453q0 -69 2 -138.5t20 -137.5h-196zM511 524q-37 -18 -78 -42.5t-75.5 -56.5t-58 -71t-23.5 -86q0 -43 24.5 -78.5t71.5 -35.5t82 27.5t57 64.5v278z
M694 1429q-27 -15 -49.5 -25t-50.5 -10q-52 0 -97 20.5t-96 20.5q-35 0 -61.5 -7.5t-57.5 -23.5v141q31 17 57.5 24t61.5 7q51 0 96 -19.5t97 -19.5q30 0 51.5 9.5t48.5 25.5v-143z" />
    <glyph glyph-name="uni1EAC" unicode="&#x1eac;" horiz-adv-x="923" 
d="M526 1475l-65 69l-64 -69h-172l129 182h215l127 -182h-170zM665 0l-57 297h-293l-53 -297h-207l262 1366h289l276 -1366h-217zM458 1104l-108 -612h221zM380 -302v182h178v-182h-178z" />
    <glyph glyph-name="uni1EAD" unicode="&#x1ead;" horiz-adv-x="811" 
d="M483 1184l-66 69l-63 -69h-173l130 182h215l129 -182h-172zM528 0q-11 29 -14 58.5t-3 60.5q-49 -53 -101 -93t-130 -40q-58 0 -96.5 23.5t-63.5 62.5t-35 87t-10 97q0 68 19.5 122t68.5 101q70 66 166 108t182 79v53q0 26 -3 53t-13 47.5t-30.5 32.5t-53.5 12
q-66 0 -88.5 -44t-24.5 -101h-203q13 153 101 232t241 79q60 0 114 -15.5t95 -62.5q43 -47 49.5 -105.5t6.5 -117.5v-453q0 -69 2 -138.5t20 -137.5h-196zM511 524q-37 -18 -78 -42.5t-75.5 -56.5t-58 -71t-23.5 -86q0 -43 24.5 -78.5t71.5 -35.5t82 27.5t57 64.5v278z
M343 -302v182h178v-182h-178z" />
    <glyph glyph-name="uni1EAE" unicode="&#x1eae;" horiz-adv-x="923" 
d="M665 0l-57 297h-293l-53 -297h-207l262 1366h289l276 -1366h-217zM458 1104l-108 -612h221zM419 1633l94 182h199l-148 -182h-145zM696 1604q-73 -153 -232.5 -159t-238.5 159h172q67 -78 129 0h170z" />
    <glyph glyph-name="uni1EAF" unicode="&#x1eaf;" horiz-adv-x="811" 
d="M528 0q-11 29 -14 58.5t-3 60.5q-49 -53 -101 -93t-130 -40q-58 0 -96.5 23.5t-63.5 62.5t-35 87t-10 97q0 68 19.5 122t68.5 101q70 66 166 108t182 79v53q0 26 -3 53t-13 47.5t-30.5 32.5t-53.5 12q-66 0 -88.5 -44t-24.5 -101h-203q13 153 101 232t241 79
q60 0 114 -15.5t95 -62.5q43 -47 49.5 -105.5t6.5 -117.5v-453q0 -69 2 -138.5t20 -137.5h-196zM511 524q-37 -18 -78 -42.5t-75.5 -56.5t-58 -71t-23.5 -86q0 -43 24.5 -78.5t71.5 -35.5t82 27.5t57 64.5v278zM359 1314l94 182h197l-148 -182h-143zM646 1265
q-73 -153 -232.5 -159t-238.5 159h172q66 -78 129 0h170z" />
    <glyph glyph-name="uni1EB0" unicode="&#x1eb0;" horiz-adv-x="923" 
d="M665 0l-57 297h-293l-53 -297h-207l262 1366h289l276 -1366h-217zM458 1104l-108 -612h221zM406 1637l-147 182h198l95 -182h-146zM696 1604q-73 -153 -232.5 -159t-238.5 159h172q67 -78 129 0h170z" />
    <glyph glyph-name="uni1EB1" unicode="&#x1eb1;" horiz-adv-x="811" 
d="M528 0q-11 29 -14 58.5t-3 60.5q-49 -53 -101 -93t-130 -40q-58 0 -96.5 23.5t-63.5 62.5t-35 87t-10 97q0 68 19.5 122t68.5 101q70 66 166 108t182 79v53q0 26 -3 53t-13 47.5t-30.5 32.5t-53.5 12q-66 0 -88.5 -44t-24.5 -101h-203q13 153 101 232t241 79
q60 0 114 -15.5t95 -62.5q43 -47 49.5 -105.5t6.5 -117.5v-453q0 -69 2 -138.5t20 -137.5h-196zM511 524q-37 -18 -78 -42.5t-75.5 -56.5t-58 -71t-23.5 -86q0 -43 24.5 -78.5t71.5 -35.5t82 27.5t57 64.5v278zM345 1313l-147 182h196l95 -182h-144zM646 1265
q-73 -153 -232.5 -159t-238.5 159h172q66 -78 129 0h170z" />
    <glyph glyph-name="uni1EB2" unicode="&#x1eb2;" horiz-adv-x="923" 
d="M665 0l-57 297h-293l-53 -297h-207l262 1366h289l276 -1366h-217zM458 1104l-108 -612h221zM402 1636q2 19 4 33q5 25 15 49.5t22.5 49t28.5 54.5q11 17 20 37t9 40q0 21 -8.5 30t-21.5 9q-9 0 -17.5 -6t-16.5 -16.5t-13.5 -25t-13.5 -39.5l-123 37q22 69 64.5 109.5
t125.5 40.5q33 0 63 -10t51.5 -28.5t33.5 -44.5t12 -56q0 -39 -16 -67.5t-35 -59.5q-20 -30 -33.5 -51.5t-21.5 -44.5q-5 -14 -9 -40h-120zM696 1604q-73 -153 -232.5 -159t-238.5 159h172q67 -78 129 0h170z" />
    <glyph glyph-name="uni1EB3" unicode="&#x1eb3;" horiz-adv-x="811" 
d="M528 0q-11 29 -14 58.5t-3 60.5q-49 -53 -101 -93t-130 -40q-58 0 -96.5 23.5t-63.5 62.5t-35 87t-10 97q0 68 19.5 122t68.5 101q70 66 166 108t182 79v53q0 26 -3 53t-13 47.5t-30.5 32.5t-53.5 12q-66 0 -88.5 -44t-24.5 -101h-203q13 153 101 232t241 79
q60 0 114 -15.5t95 -62.5q43 -47 49.5 -105.5t6.5 -117.5v-453q0 -69 2 -138.5t20 -137.5h-196zM511 524q-37 -18 -78 -42.5t-75.5 -56.5t-58 -71t-23.5 -86q0 -43 24.5 -78.5t71.5 -35.5t82 27.5t57 64.5v278zM366 1309q1 19 4 33q4 25 14 49.5t23 49t28 54.5q12 17 21 37
t9 40q0 21 -9 30t-21 9q-9 0 -17.5 -6t-16.5 -16.5t-14 -25t-13 -39.5l-123 37q22 69 64 109.5t125 40.5q34 0 63.5 -10t51 -28.5t33.5 -44.5t12 -56q0 -39 -15.5 -67.5t-35.5 -59.5q-19 -30 -33 -51.5t-21 -44.5q-5 -14 -9 -40h-120zM646 1265q-73 -153 -232.5 -159
t-238.5 159h172q66 -78 129 0h170z" />
    <glyph glyph-name="uni1EB4" unicode="&#x1eb4;" horiz-adv-x="923" 
d="M665 0l-57 297h-293l-53 -297h-207l262 1366h289l276 -1366h-217zM458 1104l-108 -612h221zM738 1669q-26 -16 -47.5 -25t-52.5 -9q-49 0 -94 20.5t-97 20.5q-34 0 -61 -7.5t-57 -23.5v141q30 16 57 23.5t61 7.5q52 0 97 -19.5t96 -19.5q31 0 51.5 9t46.5 26v-144z
M696 1604q-73 -153 -232.5 -159t-238.5 159h172q67 -78 129 0h170z" />
    <glyph glyph-name="uni1EB5" unicode="&#x1eb5;" horiz-adv-x="811" 
d="M528 0q-11 29 -14 58.5t-3 60.5q-49 -53 -101 -93t-130 -40q-58 0 -96.5 23.5t-63.5 62.5t-35 87t-10 97q0 68 19.5 122t68.5 101q70 66 166 108t182 79v53q0 26 -3 53t-13 47.5t-30.5 32.5t-53.5 12q-66 0 -88.5 -44t-24.5 -101h-203q13 153 101 232t241 79
q60 0 114 -15.5t95 -62.5q43 -47 49.5 -105.5t6.5 -117.5v-453q0 -69 2 -138.5t20 -137.5h-196zM511 524q-37 -18 -78 -42.5t-75.5 -56.5t-58 -71t-23.5 -86q0 -43 24.5 -78.5t71.5 -35.5t82 27.5t57 64.5v278zM694 1338q-27 -15 -49.5 -25t-50.5 -10q-52 0 -97 20.5
t-96 20.5q-35 0 -61.5 -7.5t-57.5 -23.5v141q31 17 57.5 24t61.5 7q51 0 96 -19.5t97 -19.5q30 0 51.5 9.5t48.5 25.5v-143zM646 1265q-73 -153 -232.5 -159t-238.5 159h172q66 -78 129 0h170z" />
    <glyph glyph-name="uni1EB6" unicode="&#x1eb6;" horiz-adv-x="923" 
d="M665 0l-57 297h-293l-53 -297h-207l262 1366h289l276 -1366h-217zM458 1104l-108 -612h221zM380 -302v182h178v-182h-178zM696 1604q-73 -153 -232.5 -159t-238.5 159h172q67 -78 129 0h170z" />
    <glyph glyph-name="uni1EB7" unicode="&#x1eb7;" horiz-adv-x="811" 
d="M528 0q-11 29 -14 58.5t-3 60.5q-49 -53 -101 -93t-130 -40q-58 0 -96.5 23.5t-63.5 62.5t-35 87t-10 97q0 68 19.5 122t68.5 101q70 66 166 108t182 79v53q0 26 -3 53t-13 47.5t-30.5 32.5t-53.5 12q-66 0 -88.5 -44t-24.5 -101h-203q13 153 101 232t241 79
q60 0 114 -15.5t95 -62.5q43 -47 49.5 -105.5t6.5 -117.5v-453q0 -69 2 -138.5t20 -137.5h-196zM511 524q-37 -18 -78 -42.5t-75.5 -56.5t-58 -71t-23.5 -86q0 -43 24.5 -78.5t71.5 -35.5t82 27.5t57 64.5v278zM343 -302v182h178v-182h-178zM646 1265q-73 -153 -232.5 -159
t-238.5 159h172q66 -78 129 0h170z" />
    <glyph glyph-name="uni1EB8" unicode="&#x1eb8;" horiz-adv-x="763" 
d="M104 0v1366h618v-195h-407v-360h301v-195h-301v-421h407v-195h-618zM324 -302v182h178v-182h-178z" />
    <glyph glyph-name="uni1EB9" unicode="&#x1eb9;" horiz-adv-x="796" 
d="M714 315q0 -67 -11.5 -128.5t-58.5 -114.5q-47 -54 -111.5 -73t-132.5 -19q-96 0 -157.5 27.5t-97 77.5t-50 119.5t-14.5 155.5v306q0 79 11.5 154t70.5 134q47 45 107.5 64.5t123.5 19.5q70 0 131.5 -21.5t108.5 -72.5q29 -31 44 -66.5t23.5 -73.5t9.5 -79t1 -80v-168
h-441v-92q0 -37 1.5 -78t13.5 -74.5t38.5 -56t78.5 -22.5q43 0 67.5 18t36.5 47t14 63.5t2 69.5h191v-37zM521 700q0 35 -4 66t-18.5 54.5t-39 36.5t-65.5 13q-39 0 -63.5 -14t-37.5 -37.5t-17.5 -54.5t-4.5 -64v-55h250v55zM307 -302v182h178v-182h-178z" />
    <glyph glyph-name="uni1EBA" unicode="&#x1eba;" horiz-adv-x="763" 
d="M104 0v1366h618v-195h-407v-360h301v-195h-301v-421h407v-195h-618zM346 1420q2 19 4 33q5 25 14.5 49.5t22.5 49t29 54.5q11 17 20 37t9 40q0 21 -8.5 30t-21.5 9q-9 0 -17.5 -6t-16.5 -16.5t-14 -25t-13 -39.5l-123 37q22 69 64.5 109.5t125.5 40.5q33 0 63 -10
t51.5 -28.5t33.5 -44.5t12 -56q0 -39 -16 -67.5t-35 -59.5q-20 -30 -33.5 -51.5t-21.5 -44.5q-5 -14 -9 -40h-120z" />
    <glyph glyph-name="uni1EBB" unicode="&#x1ebb;" horiz-adv-x="796" 
d="M714 315q0 -67 -11.5 -128.5t-58.5 -114.5q-47 -54 -111.5 -73t-132.5 -19q-96 0 -157.5 27.5t-97 77.5t-50 119.5t-14.5 155.5v306q0 79 11.5 154t70.5 134q47 45 107.5 64.5t123.5 19.5q70 0 131.5 -21.5t108.5 -72.5q29 -31 44 -66.5t23.5 -73.5t9.5 -79t1 -80v-168
h-441v-92q0 -37 1.5 -78t13.5 -74.5t38.5 -56t78.5 -22.5q43 0 67.5 18t36.5 47t14 63.5t2 69.5h191v-37zM521 700q0 35 -4 66t-18.5 54.5t-39 36.5t-65.5 13q-39 0 -63.5 -14t-37.5 -37.5t-17.5 -54.5t-4.5 -64v-55h250v55zM336 1098q1 19 4 33q4 25 14 49.5t22.5 49
t28.5 54.5q12 17 20.5 37t8.5 40q0 21 -8.5 30t-21.5 9q-8 0 -16.5 -6t-16.5 -16.5t-14 -25t-13 -39.5l-124 37q23 69 65 109.5t125 40.5q33 0 63 -10t51.5 -28.5t33.5 -44.5t12 -56q0 -39 -15.5 -67.5t-35.5 -59.5q-20 -30 -33.5 -51.5t-20.5 -44.5q-5 -14 -9 -40h-120z
" />
    <glyph glyph-name="uni1EBC" unicode="&#x1ebc;" horiz-adv-x="763" 
d="M104 0v1366h618v-195h-407v-360h301v-195h-301v-421h407v-195h-618zM625 1509q-26 -16 -47.5 -25t-52.5 -9q-49 0 -94 20.5t-97 20.5q-34 0 -61 -7.5t-57 -23.5v141q30 16 57 23.5t61 7.5q52 0 97 -19.5t96 -19.5q31 0 51.5 9t46.5 26v-144z" />
    <glyph glyph-name="uni1EBD" unicode="&#x1ebd;" horiz-adv-x="796" 
d="M714 315q0 -67 -11.5 -128.5t-58.5 -114.5q-47 -54 -111.5 -73t-132.5 -19q-96 0 -157.5 27.5t-97 77.5t-50 119.5t-14.5 155.5v306q0 79 11.5 154t70.5 134q47 45 107.5 64.5t123.5 19.5q70 0 131.5 -21.5t108.5 -72.5q29 -31 44 -66.5t23.5 -73.5t9.5 -79t1 -80v-168
h-441v-92q0 -37 1.5 -78t13.5 -74.5t38.5 -56t78.5 -22.5q43 0 67.5 18t36.5 47t14 63.5t2 69.5h191v-37zM521 700q0 35 -4 66t-18.5 54.5t-39 36.5t-65.5 13q-39 0 -63.5 -14t-37.5 -37.5t-17.5 -54.5t-4.5 -64v-55h250v55zM614 1178q-27 -15 -49.5 -25t-51.5 -10
q-51 0 -96 20.5t-96 20.5q-35 0 -61.5 -7.5t-57.5 -23.5v141q31 17 57.5 24t61.5 7q51 0 96 -19.5t96 -19.5q31 0 52.5 9.5t48.5 25.5v-143z" />
    <glyph glyph-name="uni1EBE" unicode="&#x1ebe;" horiz-adv-x="763" 
d="M473 1475l-64 69l-63 -69h-172l129 182h213l129 -182h-172zM104 0v1366h618v-195h-407v-360h301v-195h-301v-421h407v-195h-618zM361 1699l94 182h198l-147 -182h-145z" />
    <glyph glyph-name="uni1EBF" unicode="&#x1ebf;" horiz-adv-x="796" 
d="M462 1184l-64 69l-65 -69h-170l129 182h213l129 -182h-172zM714 315q0 -67 -11.5 -128.5t-58.5 -114.5q-47 -54 -111.5 -73t-132.5 -19q-96 0 -157.5 27.5t-97 77.5t-50 119.5t-14.5 155.5v306q0 79 11.5 154t70.5 134q47 45 107.5 64.5t123.5 19.5q70 0 131.5 -21.5
t108.5 -72.5q29 -31 44 -66.5t23.5 -73.5t9.5 -79t1 -80v-168h-441v-92q0 -37 1.5 -78t13.5 -74.5t38.5 -56t78.5 -22.5q43 0 67.5 18t36.5 47t14 63.5t2 69.5h191v-37zM521 700q0 35 -4 66t-18.5 54.5t-39 36.5t-65.5 13q-39 0 -63.5 -14t-37.5 -37.5t-17.5 -54.5t-4.5 -64
v-55h250v55zM339 1414l94 182h197l-148 -182h-143z" />
    <glyph glyph-name="uni1EC0" unicode="&#x1ec0;" horiz-adv-x="763" 
d="M473 1475l-64 69l-63 -69h-172l129 182h213l129 -182h-172zM104 0v1366h618v-195h-407v-360h301v-195h-301v-421h407v-195h-618zM366 1689l-147 182h198l94 -182h-145z" />
    <glyph glyph-name="uni1EC1" unicode="&#x1ec1;" horiz-adv-x="796" 
d="M462 1184l-64 69l-65 -69h-170l129 182h213l129 -182h-172zM714 315q0 -67 -11.5 -128.5t-58.5 -114.5q-47 -54 -111.5 -73t-132.5 -19q-96 0 -157.5 27.5t-97 77.5t-50 119.5t-14.5 155.5v306q0 79 11.5 154t70.5 134q47 45 107.5 64.5t123.5 19.5q70 0 131.5 -21.5
t108.5 -72.5q29 -31 44 -66.5t23.5 -73.5t9.5 -79t1 -80v-168h-441v-92q0 -37 1.5 -78t13.5 -74.5t38.5 -56t78.5 -22.5q43 0 67.5 18t36.5 47t14 63.5t2 69.5h191v-37zM521 700q0 35 -4 66t-18.5 54.5t-39 36.5t-65.5 13q-39 0 -63.5 -14t-37.5 -37.5t-17.5 -54.5t-4.5 -64
v-55h250v55zM345 1414l-147 182h196l95 -182h-144z" />
    <glyph glyph-name="uni1EC2" unicode="&#x1ec2;" horiz-adv-x="763" 
d="M473 1475l-64 69l-63 -69h-172l129 182h213l129 -182h-172zM104 0v1366h618v-195h-407v-360h301v-195h-301v-421h407v-195h-618zM557 1631q2 19 4 33q5 25 14.5 49.5t22.5 49t29 54.5q11 17 20 37t9 40q0 21 -8.5 30t-21.5 9q-9 0 -17.5 -6t-16.5 -16.5t-14 -25
t-13 -39.5l-123 37q22 69 64.5 109.5t125.5 40.5q33 0 63 -10t51.5 -28.5t33.5 -44.5t12 -56q0 -39 -16 -67.5t-35 -59.5q-20 -30 -33.5 -51.5t-21.5 -44.5q-5 -14 -9 -40h-120z" />
    <glyph glyph-name="uni1EC3" unicode="&#x1ec3;" horiz-adv-x="796" 
d="M462 1184l-64 69l-65 -69h-170l129 182h213l129 -182h-172zM714 315q0 -67 -11.5 -128.5t-58.5 -114.5q-47 -54 -111.5 -73t-132.5 -19q-96 0 -157.5 27.5t-97 77.5t-50 119.5t-14.5 155.5v306q0 79 11.5 154t70.5 134q47 45 107.5 64.5t123.5 19.5q70 0 131.5 -21.5
t108.5 -72.5q29 -31 44 -66.5t23.5 -73.5t9.5 -79t1 -80v-168h-441v-92q0 -37 1.5 -78t13.5 -74.5t38.5 -56t78.5 -22.5q43 0 67.5 18t36.5 47t14 63.5t2 69.5h191v-37zM521 700q0 35 -4 66t-18.5 54.5t-39 36.5t-65.5 13q-39 0 -63.5 -14t-37.5 -37.5t-17.5 -54.5t-4.5 -64
v-55h250v55zM577 1309q1 19 4 33q4 25 14 49.5t22.5 49t28.5 54.5q12 17 20.5 37t8.5 40q0 21 -8.5 30t-21.5 9q-8 0 -16.5 -6t-16.5 -16.5t-14 -25t-13 -39.5l-124 37q23 69 65 109.5t125 40.5q33 0 63 -10t51.5 -28.5t33.5 -44.5t12 -56q0 -39 -15.5 -67.5t-35.5 -59.5
q-20 -30 -33.5 -51.5t-20.5 -44.5q-5 -14 -9 -40h-120z" />
    <glyph glyph-name="uni1EC4" unicode="&#x1ec4;" horiz-adv-x="763" 
d="M473 1475l-64 69l-63 -69h-172l129 182h213l129 -182h-172zM104 0v1366h618v-195h-407v-360h301v-195h-301v-421h407v-195h-618zM695 1720q-26 -16 -47.5 -25t-52.5 -9q-49 0 -94 20.5t-97 20.5q-34 0 -61 -7.5t-57 -23.5v141q30 16 57 23.5t61 7.5q52 0 97 -19.5
t96 -19.5q31 0 51.5 9t46.5 26v-144z" />
    <glyph glyph-name="uni1EC5" unicode="&#x1ec5;" horiz-adv-x="796" 
d="M462 1184l-64 69l-65 -69h-170l129 182h213l129 -182h-172zM714 315q0 -67 -11.5 -128.5t-58.5 -114.5q-47 -54 -111.5 -73t-132.5 -19q-96 0 -157.5 27.5t-97 77.5t-50 119.5t-14.5 155.5v306q0 79 11.5 154t70.5 134q47 45 107.5 64.5t123.5 19.5q70 0 131.5 -21.5
t108.5 -72.5q29 -31 44 -66.5t23.5 -73.5t9.5 -79t1 -80v-168h-441v-92q0 -37 1.5 -78t13.5 -74.5t38.5 -56t78.5 -22.5q43 0 67.5 18t36.5 47t14 63.5t2 69.5h191v-37zM521 700q0 35 -4 66t-18.5 54.5t-39 36.5t-65.5 13q-39 0 -63.5 -14t-37.5 -37.5t-17.5 -54.5t-4.5 -64
v-55h250v55zM664 1429q-27 -15 -49.5 -25t-51.5 -10q-51 0 -96 20.5t-96 20.5q-35 0 -61.5 -7.5t-57.5 -23.5v141q31 17 57.5 24t61.5 7q51 0 96 -19.5t96 -19.5q31 0 52.5 9.5t48.5 25.5v-143z" />
    <glyph glyph-name="uni1EC6" unicode="&#x1ec6;" horiz-adv-x="763" 
d="M473 1475l-64 69l-63 -69h-172l129 182h213l129 -182h-172zM104 0v1366h618v-195h-407v-360h301v-195h-301v-421h407v-195h-618zM324 -302v182h178v-182h-178z" />
    <glyph glyph-name="uni1EC7" unicode="&#x1ec7;" horiz-adv-x="796" 
d="M462 1184l-64 69l-65 -69h-170l129 182h213l129 -182h-172zM714 315q0 -67 -11.5 -128.5t-58.5 -114.5q-47 -54 -111.5 -73t-132.5 -19q-96 0 -157.5 27.5t-97 77.5t-50 119.5t-14.5 155.5v306q0 79 11.5 154t70.5 134q47 45 107.5 64.5t123.5 19.5q70 0 131.5 -21.5
t108.5 -72.5q29 -31 44 -66.5t23.5 -73.5t9.5 -79t1 -80v-168h-441v-92q0 -37 1.5 -78t13.5 -74.5t38.5 -56t78.5 -22.5q43 0 67.5 18t36.5 47t14 63.5t2 69.5h191v-37zM521 700q0 35 -4 66t-18.5 54.5t-39 36.5t-65.5 13q-39 0 -63.5 -14t-37.5 -37.5t-17.5 -54.5t-4.5 -64
v-55h250v55zM307 -302v182h178v-182h-178z" />
    <glyph glyph-name="uni1EC8" unicode="&#x1ec8;" horiz-adv-x="419" 
d="M104 0v1366h211v-1366h-211zM135 1420q2 19 4 33q5 25 14.5 49.5t22.5 49t29 54.5q11 17 20 37t9 40q0 21 -8.5 30t-21.5 9q-9 0 -17.5 -6t-16.5 -16.5t-13.5 -25t-13.5 -39.5l-123 37q22 69 64.5 109.5t125.5 40.5q33 0 63 -10t51.5 -28.5t33.5 -44.5t12 -56
q0 -39 -16 -67.5t-35 -59.5q-20 -30 -33.5 -51.5t-21.5 -44.5q-5 -14 -9 -40h-120z" />
    <glyph glyph-name="uni1EC9" unicode="&#x1ec9;" horiz-adv-x="368" 
d="M88 0v1018h192v-1018h-192zM125 1098q2 19 4 33q5 25 14.5 49.5t22.5 49t29 54.5q11 17 20 37t9 40q0 21 -8.5 30t-21.5 9q-9 0 -17.5 -6t-16.5 -16.5t-13.5 -25t-13.5 -39.5l-123 37q22 69 64.5 109.5t125.5 40.5q33 0 63 -10t51.5 -28.5t33.5 -44.5t12 -56
q0 -39 -16 -67.5t-35 -59.5q-20 -30 -33.5 -51.5t-21.5 -44.5q-5 -14 -9 -40h-120z" />
    <glyph glyph-name="uni1ECA" unicode="&#x1eca;" horiz-adv-x="419" 
d="M104 0v1366h211v-1366h-211zM123 -302v182h178v-182h-178z" />
    <glyph glyph-name="uni1ECB" unicode="&#x1ecb;" horiz-adv-x="368" 
d="M88 1167v199h193v-199h-193zM88 0v1018h193v-1018h-193zM98 -302v182h178v-182h-178z" />
    <glyph glyph-name="uni1ECC" unicode="&#x1ecc;" horiz-adv-x="925" 
d="M835 434q0 -88 -12 -169t-65 -154q-52 -72 -130.5 -101.5t-164.5 -29.5t-164 29.5t-131 101.5q-53 69 -65.5 154t-12.5 169v498q0 86 13.5 168t64.5 153q51 72 130 102.5t165 30.5q88 0 164.5 -30.5t130.5 -102.5q53 -69 65 -153t12 -168v-498zM625 928q0 47 -2.5 95
t-24.5 91q-21 37 -57.5 55.5t-77.5 18.5q-60 0 -92.5 -23.5t-48 -61.5t-18.5 -84t-3 -91v-490q0 -45 3 -91t18.5 -84t48 -61.5t92.5 -23.5q59 0 92 23.5t48 61.5t18.5 84t3.5 91v490zM374 -302v182h178v-182h-178z" />
    <glyph glyph-name="uni1ECD" unicode="&#x1ecd;" 
d="M706 350q0 -80 -11.5 -154.5t-70.5 -134.5q-47 -47 -107.5 -64t-124.5 -17q-65 0 -124.5 18t-106.5 63q-60 56 -70 133.5t-10 155.5v316q0 39 1 77.5t9 75.5t24.5 71t45.5 64q47 47 107.5 65.5t123.5 18.5q66 0 125.5 -18.5t106.5 -65.5q30 -28 46.5 -63t24 -72
t9.5 -75.5t2 -77.5v-316zM515 678q0 33 -4 66.5t-16.5 60t-37 43t-65.5 16.5t-64.5 -17.5t-35.5 -44t-16.5 -59t-4.5 -65.5v-338q0 -33 4.5 -65.5t16.5 -59.5t35.5 -44t64.5 -17t65.5 16t37 43t16.5 60.5t4 66.5v338zM307 -302v182h178v-182h-178z" />
    <glyph glyph-name="uni1ECE" unicode="&#x1ece;" horiz-adv-x="925" 
d="M835 434q0 -88 -12 -169t-65 -154q-52 -72 -130.5 -101.5t-164.5 -29.5t-164 29.5t-131 101.5q-53 69 -65.5 154t-12.5 169v498q0 86 13.5 168t64.5 153q51 72 130 102.5t165 30.5q88 0 164.5 -30.5t130.5 -102.5q53 -69 65 -153t12 -168v-498zM625 928q0 47 -2.5 95
t-24.5 91q-21 37 -57.5 55.5t-77.5 18.5q-60 0 -92.5 -23.5t-48 -61.5t-18.5 -84t-3 -91v-490q0 -45 3 -91t18.5 -84t48 -61.5t92.5 -23.5q59 0 92 23.5t48 61.5t18.5 84t3.5 91v490zM396 1450q2 19 5 33q4 25 14 49.5t22.5 49t28.5 54.5q12 17 20.5 37t8.5 40q0 21 -8.5 30
t-21.5 9q-9 0 -17 -6t-16.5 -16.5t-14 -25t-12.5 -39.5l-124 37q23 69 65 109.5t125 40.5q33 0 63 -10t51.5 -28.5t33.5 -44.5t12 -56q0 -39 -15.5 -67.5t-35.5 -59.5q-20 -30 -33.5 -51.5t-21.5 -44.5q-4 -14 -8 -40h-121z" />
    <glyph glyph-name="uni1ECF" unicode="&#x1ecf;" 
d="M706 350q0 -80 -11.5 -154.5t-70.5 -134.5q-47 -47 -107.5 -64t-124.5 -17q-65 0 -124.5 18t-106.5 63q-60 56 -70 133.5t-10 155.5v316q0 39 1 77.5t9 75.5t24.5 71t45.5 64q47 47 107.5 65.5t123.5 18.5q66 0 125.5 -18.5t106.5 -65.5q30 -28 46.5 -63t24 -72
t9.5 -75.5t2 -77.5v-316zM515 678q0 33 -4 66.5t-16.5 60t-37 43t-65.5 16.5t-64.5 -17.5t-35.5 -44t-16.5 -59t-4.5 -65.5v-338q0 -33 4.5 -65.5t16.5 -59.5t35.5 -44t64.5 -17t65.5 16t37 43t16.5 60.5t4 66.5v338zM336 1098q1 19 4 33q4 25 14 49.5t22.5 49t28.5 54.5
q12 17 20.5 37t8.5 40q0 21 -8.5 30t-21.5 9q-8 0 -16.5 -6t-16.5 -16.5t-14 -25t-13 -39.5l-124 37q23 69 65 109.5t125 40.5q33 0 63 -10t51.5 -28.5t33.5 -44.5t12 -56q0 -39 -15.5 -67.5t-35.5 -59.5q-20 -30 -33.5 -51.5t-20.5 -44.5q-5 -14 -9 -40h-120z" />
    <glyph glyph-name="uni1ED0" unicode="&#x1ed0;" horiz-adv-x="925" 
d="M526 1475l-63 69l-64 -69h-172l129 182h213l129 -182h-172zM835 434q0 -88 -12 -169t-65 -154q-52 -72 -130.5 -101.5t-164.5 -29.5t-164 29.5t-131 101.5q-53 69 -65.5 154t-12.5 169v498q0 86 13.5 168t64.5 153q51 72 130 102.5t165 30.5q88 0 164.5 -30.5
t130.5 -102.5q53 -69 65 -153t12 -168v-498zM625 928q0 47 -2.5 95t-24.5 91q-21 37 -57.5 55.5t-77.5 18.5q-60 0 -92.5 -23.5t-48 -61.5t-18.5 -84t-3 -91v-490q0 -45 3 -91t18.5 -84t48 -61.5t92.5 -23.5q59 0 92 23.5t48 61.5t18.5 84t3.5 91v490zM391 1699l94 182h199
l-148 -182h-145z" />
    <glyph glyph-name="uni1ED1" unicode="&#x1ed1;" 
d="M458 1184l-66 69l-63 -69h-172l129 182h215l129 -182h-172zM706 350q0 -80 -11.5 -154.5t-70.5 -134.5q-47 -47 -107.5 -64t-124.5 -17q-65 0 -124.5 18t-106.5 63q-60 56 -70 133.5t-10 155.5v316q0 39 1 77.5t9 75.5t24.5 71t45.5 64q47 47 107.5 65.5t123.5 18.5
q66 0 125.5 -18.5t106.5 -65.5q30 -28 46.5 -63t24 -72t9.5 -75.5t2 -77.5v-316zM515 678q0 33 -4 66.5t-16.5 60t-37 43t-65.5 16.5t-64.5 -17.5t-35.5 -44t-16.5 -59t-4.5 -65.5v-338q0 -33 4.5 -65.5t16.5 -59.5t35.5 -44t64.5 -17t65.5 16t37 43t16.5 60.5t4 66.5v338z
M329 1414l94 182h197l-148 -182h-143z" />
    <glyph glyph-name="uni1ED2" unicode="&#x1ed2;" horiz-adv-x="925" 
d="M526 1475l-63 69l-64 -69h-172l129 182h213l129 -182h-172zM835 434q0 -88 -12 -169t-65 -154q-52 -72 -130.5 -101.5t-164.5 -29.5t-164 29.5t-131 101.5q-53 69 -65.5 154t-12.5 169v498q0 86 13.5 168t64.5 153q51 72 130 102.5t165 30.5q88 0 164.5 -30.5
t130.5 -102.5q53 -69 65 -153t12 -168v-498zM625 928q0 47 -2.5 95t-24.5 91q-21 37 -57.5 55.5t-77.5 18.5q-60 0 -92.5 -23.5t-48 -61.5t-18.5 -84t-3 -91v-490q0 -45 3 -91t18.5 -84t48 -61.5t92.5 -23.5q59 0 92 23.5t48 61.5t18.5 84t3.5 91v490zM397 1689l-147 182
h198l95 -182h-146z" />
    <glyph glyph-name="uni1ED3" unicode="&#x1ed3;" 
d="M458 1184l-66 69l-63 -69h-172l129 182h215l129 -182h-172zM706 350q0 -80 -11.5 -154.5t-70.5 -134.5q-47 -47 -107.5 -64t-124.5 -17q-65 0 -124.5 18t-106.5 63q-60 56 -70 133.5t-10 155.5v316q0 39 1 77.5t9 75.5t24.5 71t45.5 64q47 47 107.5 65.5t123.5 18.5
q66 0 125.5 -18.5t106.5 -65.5q30 -28 46.5 -63t24 -72t9.5 -75.5t2 -77.5v-316zM515 678q0 33 -4 66.5t-16.5 60t-37 43t-65.5 16.5t-64.5 -17.5t-35.5 -44t-16.5 -59t-4.5 -65.5v-338q0 -33 4.5 -65.5t16.5 -59.5t35.5 -44t64.5 -17t65.5 16t37 43t16.5 60.5t4 66.5v338z
M345 1414l-147 182h196l95 -182h-144z" />
    <glyph glyph-name="uni1ED4" unicode="&#x1ed4;" horiz-adv-x="925" 
d="M526 1475l-63 69l-64 -69h-172l129 182h213l129 -182h-172zM835 434q0 -88 -12 -169t-65 -154q-52 -72 -130.5 -101.5t-164.5 -29.5t-164 29.5t-131 101.5q-53 69 -65.5 154t-12.5 169v498q0 86 13.5 168t64.5 153q51 72 130 102.5t165 30.5q88 0 164.5 -30.5
t130.5 -102.5q53 -69 65 -153t12 -168v-498zM625 928q0 47 -2.5 95t-24.5 91q-21 37 -57.5 55.5t-77.5 18.5q-60 0 -92.5 -23.5t-48 -61.5t-18.5 -84t-3 -91v-490q0 -45 3 -91t18.5 -84t48 -61.5t92.5 -23.5q59 0 92 23.5t48 61.5t18.5 84t3.5 91v490zM647 1621q2 19 5 33
q4 25 14 49.5t22.5 49t28.5 54.5q12 17 20.5 37t8.5 40q0 21 -8.5 30t-21.5 9q-9 0 -17 -6t-16.5 -16.5t-14 -25t-12.5 -39.5l-124 37q23 69 65 109.5t125 40.5q33 0 63 -10t51.5 -28.5t33.5 -44.5t12 -56q0 -39 -15.5 -67.5t-35.5 -59.5q-20 -30 -33.5 -51.5t-21.5 -44.5
q-4 -14 -8 -40h-121z" />
    <glyph glyph-name="uni1ED5" unicode="&#x1ed5;" 
d="M458 1184l-66 69l-63 -69h-172l129 182h215l129 -182h-172zM706 350q0 -80 -11.5 -154.5t-70.5 -134.5q-47 -47 -107.5 -64t-124.5 -17q-65 0 -124.5 18t-106.5 63q-60 56 -70 133.5t-10 155.5v316q0 39 1 77.5t9 75.5t24.5 71t45.5 64q47 47 107.5 65.5t123.5 18.5
q66 0 125.5 -18.5t106.5 -65.5q30 -28 46.5 -63t24 -72t9.5 -75.5t2 -77.5v-316zM515 678q0 33 -4 66.5t-16.5 60t-37 43t-65.5 16.5t-64.5 -17.5t-35.5 -44t-16.5 -59t-4.5 -65.5v-338q0 -33 4.5 -65.5t16.5 -59.5t35.5 -44t64.5 -17t65.5 16t37 43t16.5 60.5t4 66.5v338z
M567 1309q1 19 4 33q4 25 14 49.5t22.5 49t28.5 54.5q12 17 20.5 37t8.5 40q0 21 -8.5 30t-21.5 9q-8 0 -16.5 -6t-16.5 -16.5t-14 -25t-13 -39.5l-124 37q23 69 65 109.5t125 40.5q33 0 63 -10t51.5 -28.5t33.5 -44.5t12 -56q0 -39 -15.5 -67.5t-35.5 -59.5
q-20 -30 -33.5 -51.5t-20.5 -44.5q-5 -14 -9 -40h-120z" />
    <glyph glyph-name="uni1ED6" unicode="&#x1ed6;" horiz-adv-x="925" 
d="M526 1475l-63 69l-64 -69h-172l129 182h213l129 -182h-172zM835 434q0 -88 -12 -169t-65 -154q-52 -72 -130.5 -101.5t-164.5 -29.5t-164 29.5t-131 101.5q-53 69 -65.5 154t-12.5 169v498q0 86 13.5 168t64.5 153q51 72 130 102.5t165 30.5q88 0 164.5 -30.5
t130.5 -102.5q53 -69 65 -153t12 -168v-498zM625 928q0 47 -2.5 95t-24.5 91q-21 37 -57.5 55.5t-77.5 18.5q-60 0 -92.5 -23.5t-48 -61.5t-18.5 -84t-3 -91v-490q0 -45 3 -91t18.5 -84t48 -61.5t92.5 -23.5q59 0 92 23.5t48 61.5t18.5 84t3.5 91v490zM735 1720
q-26 -16 -47.5 -25t-52.5 -9q-49 0 -94 20.5t-96 20.5q-35 0 -61.5 -7.5t-57.5 -23.5v141q31 16 57.5 23.5t61.5 7.5q51 0 96 -19.5t96 -19.5q31 0 51.5 9t46.5 26v-144z" />
    <glyph glyph-name="uni1ED7" unicode="&#x1ed7;" 
d="M458 1184l-66 69l-63 -69h-172l129 182h215l129 -182h-172zM706 350q0 -80 -11.5 -154.5t-70.5 -134.5q-47 -47 -107.5 -64t-124.5 -17q-65 0 -124.5 18t-106.5 63q-60 56 -70 133.5t-10 155.5v316q0 39 1 77.5t9 75.5t24.5 71t45.5 64q47 47 107.5 65.5t123.5 18.5
q66 0 125.5 -18.5t106.5 -65.5q30 -28 46.5 -63t24 -72t9.5 -75.5t2 -77.5v-316zM515 678q0 33 -4 66.5t-16.5 60t-37 43t-65.5 16.5t-64.5 -17.5t-35.5 -44t-16.5 -59t-4.5 -65.5v-338q0 -33 4.5 -65.5t16.5 -59.5t35.5 -44t64.5 -17t65.5 16t37 43t16.5 60.5t4 66.5v338z
M664 1429q-27 -15 -49.5 -25t-51.5 -10q-51 0 -96 20.5t-96 20.5q-35 0 -61.5 -7.5t-57.5 -23.5v141q31 17 57.5 24t61.5 7q51 0 96 -19.5t96 -19.5q31 0 52.5 9.5t48.5 25.5v-143z" />
    <glyph glyph-name="uni1ED8" unicode="&#x1ed8;" horiz-adv-x="925" 
d="M526 1475l-63 69l-64 -69h-172l129 182h213l129 -182h-172zM835 434q0 -88 -12 -169t-65 -154q-52 -72 -130.5 -101.5t-164.5 -29.5t-164 29.5t-131 101.5q-53 69 -65.5 154t-12.5 169v498q0 86 13.5 168t64.5 153q51 72 130 102.5t165 30.5q88 0 164.5 -30.5
t130.5 -102.5q53 -69 65 -153t12 -168v-498zM625 928q0 47 -2.5 95t-24.5 91q-21 37 -57.5 55.5t-77.5 18.5q-60 0 -92.5 -23.5t-48 -61.5t-18.5 -84t-3 -91v-490q0 -45 3 -91t18.5 -84t48 -61.5t92.5 -23.5q59 0 92 23.5t48 61.5t18.5 84t3.5 91v490zM374 -302v182h178
v-182h-178z" />
    <glyph glyph-name="uni1ED9" unicode="&#x1ed9;" 
d="M458 1184l-66 69l-63 -69h-172l129 182h215l129 -182h-172zM706 350q0 -80 -11.5 -154.5t-70.5 -134.5q-47 -47 -107.5 -64t-124.5 -17q-65 0 -124.5 18t-106.5 63q-60 56 -70 133.5t-10 155.5v316q0 39 1 77.5t9 75.5t24.5 71t45.5 64q47 47 107.5 65.5t123.5 18.5
q66 0 125.5 -18.5t106.5 -65.5q30 -28 46.5 -63t24 -72t9.5 -75.5t2 -77.5v-316zM515 678q0 33 -4 66.5t-16.5 60t-37 43t-65.5 16.5t-64.5 -17.5t-35.5 -44t-16.5 -59t-4.5 -65.5v-338q0 -33 4.5 -65.5t16.5 -59.5t35.5 -44t64.5 -17t65.5 16t37 43t16.5 60.5t4 66.5v338z
M307 -302v182h178v-182h-178z" />
    <glyph glyph-name="uni1EDA" unicode="&#x1eda;" horiz-adv-x="925" 
d="M522 1475h-143l92 182h199zM625 928q0 47 -2 95t-25 91q-20 37 -57 55.5t-78 18.5q-60 0 -92.5 -23.5t-48 -61.5t-18.5 -84t-3 -91v-490q0 -45 3 -91t18.5 -84t48 -61.5t92.5 -23.5q59 0 92 23.5t48 61.5t18.5 84t3.5 91v490zM762 1247q50 -66 62 -147q12 -84 12 -168
v-498q0 -88 -12.5 -169t-65.5 -154q-51 -72 -130 -101.5t-165 -29.5t-164 29.5t-131 101.5q-53 69 -65.5 154t-12.5 169v498q0 86 13.5 168t64.5 153q51 72 130 102.5t165 30.5q88 0 165 -30q47 -19 85 -53l31 97h-71v169h153v-169z" />
    <glyph glyph-name="uni1EDB" unicode="&#x1edb;" 
d="M452 1184h-144l94 182h199zM515 678q0 33 -4 66.5t-16.5 60t-37 43t-65.5 16.5t-64.5 -17.5t-35.5 -44t-16.5 -59t-4.5 -65.5v-338q0 -33 4.5 -65.5t16.5 -59.5t35.5 -44t64.5 -17t65.5 16t37 43t16.5 60.5t4 66.5v338zM665 902q3 -5 6 -11q16 -35 23 -72t9.5 -75.5
t2.5 -77.5v-316q0 -80 -11.5 -154.5t-70.5 -134.5q-47 -47 -107.5 -64t-124.5 -17q-65 0 -124.5 18t-106.5 63q-60 56 -70 133.5t-10 155.5v316q0 39 1 77.5t9 75.5t24.5 71t45.5 64q47 47 107.5 65.5t123.5 18.5q66 0 126 -18q54 -17 98 -59l32 98h-71v169h153v-169z" />
    <glyph glyph-name="uni1EDC" unicode="&#x1edc;" horiz-adv-x="925" 
d="M403 1475l-147 182h199l92 -182h-144zM625 928q0 47 -2 95t-25 91q-20 37 -57 55.5t-78 18.5q-60 0 -92.5 -23.5t-48 -61.5t-18.5 -84t-3 -91v-490q0 -45 3 -91t18.5 -84t48 -61.5t92.5 -23.5q59 0 92 23.5t48 61.5t18.5 84t3.5 91v490zM762 1247q50 -66 62 -147
q12 -84 12 -168v-498q0 -88 -12.5 -169t-65.5 -154q-51 -72 -130 -101.5t-165 -29.5t-164 29.5t-131 101.5q-53 69 -65.5 154t-12.5 169v498q0 86 13.5 168t64.5 153q51 72 130 102.5t165 30.5q88 0 165 -30q47 -19 85 -53l31 97h-71v169h153v-169z" />
    <glyph glyph-name="uni1EDD" unicode="&#x1edd;" 
d="M321 1184l-148 182h197l94 -182h-143zM515 678q0 33 -4 66.5t-16.5 60t-37 43t-65.5 16.5t-64.5 -17.5t-35.5 -44t-16.5 -59t-4.5 -65.5v-338q0 -33 4.5 -65.5t16.5 -59.5t35.5 -44t64.5 -17t65.5 16t37 43t16.5 60.5t4 66.5v338zM665 902q3 -5 6 -11q16 -35 23 -72
t9.5 -75.5t2.5 -77.5v-316q0 -80 -11.5 -154.5t-70.5 -134.5q-47 -47 -107.5 -64t-124.5 -17q-65 0 -124.5 18t-106.5 63q-60 56 -70 133.5t-10 155.5v316q0 39 1 77.5t9 75.5t24.5 71t45.5 64q47 47 107.5 65.5t123.5 18.5q66 0 126 -18q54 -17 98 -59l32 98h-71v169h153
v-169z" />
    <glyph glyph-name="uni1EDE" unicode="&#x1ede;" horiz-adv-x="925" 
d="M625 928q0 47 -2 95t-25 91q-20 37 -57 55.5t-78 18.5q-60 0 -92.5 -23.5t-48 -61.5t-18.5 -84t-3 -91v-490q0 -45 3 -91t18.5 -84t48 -61.5t92.5 -23.5q59 0 92 23.5t48 61.5t18.5 84t3.5 91v490zM396 1450q2 19 5 33q4 25 14 49.5t22.5 49t28.5 54.5q12 17 20.5 37
t8.5 40q0 21 -8.5 30t-21.5 9q-9 0 -17 -6t-16.5 -16.5t-14 -25t-12.5 -39.5l-124 37q23 69 65 109.5t125 40.5q33 0 63 -10t51.5 -28.5t33.5 -44.5t12 -56q0 -39 -15.5 -67.5t-35.5 -59.5q-20 -30 -33.5 -51.5t-20.5 -44.5q-5 -14 -9 -40h-121zM762 1247q50 -66 62 -147
q12 -84 12 -168v-498q0 -88 -12.5 -169t-65.5 -154q-51 -72 -130 -101.5t-165 -29.5t-164 29.5t-131 101.5q-53 69 -65.5 154t-12.5 169v498q0 86 13.5 168t64.5 153q51 72 130 102.5t165 30.5q88 0 165 -30q47 -19 85 -53l31 97h-71v169h153v-169z" />
    <glyph glyph-name="uni1EDF" unicode="&#x1edf;" 
d="M515 678q0 33 -4 66.5t-16.5 60t-37 43t-65.5 16.5t-64.5 -17.5t-35.5 -44t-16.5 -59t-4.5 -65.5v-338q0 -33 4.5 -65.5t16.5 -59.5t35.5 -44t64.5 -17t65.5 16t37 43t16.5 60.5t4 66.5v338zM335 1098q2 19 5 33q4 25 14 49.5t22.5 49t28.5 54.5q12 17 20.5 37t8.5 40
q0 21 -8.5 30t-21.5 9q-9 0 -17 -6t-16.5 -16.5t-14 -25t-12.5 -39.5l-124 37q23 69 65 109.5t125 40.5q33 0 63 -10t51.5 -28.5t33.5 -44.5t12 -56q0 -39 -15.5 -67.5t-35.5 -59.5q-20 -30 -33.5 -51.5t-20.5 -44.5q-5 -14 -9 -40h-121zM665 902q3 -5 6 -11q16 -35 23 -72
t9.5 -75.5t2.5 -77.5v-316q0 -80 -11.5 -154.5t-70.5 -134.5q-47 -47 -107.5 -64t-124.5 -17q-65 0 -124.5 18t-106.5 63q-60 56 -70 133.5t-10 155.5v316q0 39 1 77.5t9 75.5t24.5 71t45.5 64q47 47 107.5 65.5t123.5 18.5q66 0 126 -18q54 -17 98 -59l32 98h-71v169h153
v-169z" />
    <glyph glyph-name="uni1EE0" unicode="&#x1ee0;" horiz-adv-x="925" 
d="M668 1609q-27 -14 -48.5 -24t-52.5 -10q-49 0 -94 20.5t-96 20.5q-35 0 -61.5 -7.5t-57.5 -23.5v141q31 16 57.5 23.5t61.5 7.5q51 0 96 -19.5t94 -19.5q31 0 52.5 9t48.5 26v-144zM625 928q0 47 -2 95t-25 91q-20 37 -57 55.5t-78 18.5q-60 0 -92.5 -23.5t-48 -61.5
t-18.5 -84t-3 -91v-490q0 -45 3 -91t18.5 -84t48 -61.5t92.5 -23.5q59 0 92 23.5t48 61.5t18.5 84t3.5 91v490zM762 1247q50 -66 62 -147q12 -84 12 -168v-498q0 -88 -12.5 -169t-65.5 -154q-51 -72 -130 -101.5t-165 -29.5t-164 29.5t-131 101.5q-53 69 -65.5 154
t-12.5 169v498q0 86 13.5 168t64.5 153q51 72 130 102.5t165 30.5q88 0 165 -30q47 -19 85 -53l31 97h-71v169h153v-169z" />
    <glyph glyph-name="uni1EE1" unicode="&#x1ee1;" 
d="M627 1279q-25 -15 -47.5 -25t-50.5 -10q-49 0 -95.5 20.5t-97.5 20.5q-35 0 -61.5 -7.5t-57.5 -23.5v141q31 17 57.5 24t61.5 7q51 0 96.5 -19.5t96.5 -19.5q30 0 50.5 9.5t47.5 25.5v-143zM515 678q0 33 -4 66.5t-16.5 60t-37 43t-65.5 16.5t-64.5 -17.5t-35.5 -44
t-16.5 -59t-4.5 -65.5v-338q0 -33 4.5 -65.5t16.5 -59.5t35.5 -44t64.5 -17t65.5 16t37 43t16.5 60.5t4 66.5v338zM665 902q3 -5 6 -11q16 -35 23 -72t9.5 -75.5t2.5 -77.5v-316q0 -80 -11.5 -154.5t-70.5 -134.5q-47 -47 -107.5 -64t-124.5 -17q-65 0 -124.5 18t-106.5 63
q-60 56 -70 133.5t-10 155.5v316q0 39 1 77.5t9 75.5t24.5 71t45.5 64q47 47 107.5 65.5t123.5 18.5q66 0 126 -18q54 -17 98 -59l32 98h-71v169h153v-169z" />
    <glyph glyph-name="uni1EE2" unicode="&#x1ee2;" horiz-adv-x="925" 
d="M625 928q0 47 -2 95t-25 91q-20 37 -57 55.5t-78 18.5q-60 0 -92.5 -23.5t-48 -61.5t-18.5 -84t-3 -91v-490q0 -45 3 -91t18.5 -84t48 -61.5t92.5 -23.5q59 0 92 23.5t48 61.5t18.5 84t3.5 91v490zM374 -302v182h178v-182h-178zM762 1247q50 -66 62 -147q12 -84 12 -168
v-498q0 -88 -12.5 -169t-65.5 -154q-51 -72 -130 -101.5t-165 -29.5t-164 29.5t-131 101.5q-53 69 -65.5 154t-12.5 169v498q0 86 13.5 168t64.5 153q51 72 130 102.5t165 30.5q88 0 165 -30q47 -19 85 -53l31 97h-71v169h153v-169z" />
    <glyph glyph-name="uni1EE3" unicode="&#x1ee3;" 
d="M515 678q0 33 -4 66.5t-16.5 60t-37 43t-65.5 16.5t-64.5 -17.5t-35.5 -44t-16.5 -59t-4.5 -65.5v-338q0 -33 4.5 -65.5t16.5 -59.5t35.5 -44t64.5 -17t65.5 16t37 43t16.5 60.5t4 66.5v338zM307 -302v182h178v-182h-178zM665 902q3 -5 6 -11q16 -35 23 -72t9.5 -75.5
t2.5 -77.5v-316q0 -80 -11.5 -154.5t-70.5 -134.5q-47 -47 -107.5 -64t-124.5 -17q-65 0 -124.5 18t-106.5 63q-60 56 -70 133.5t-10 155.5v316q0 39 1 77.5t9 75.5t24.5 71t45.5 64q47 47 107.5 65.5t123.5 18.5q66 0 126 -18q54 -17 98 -59l32 98h-71v169h153v-169z" />
    <glyph glyph-name="uni1EE4" unicode="&#x1ee4;" horiz-adv-x="929" 
d="M825 440q0 -90 -11.5 -177t-66.5 -161q-49 -65 -126 -93.5t-157 -28.5q-84 0 -156.5 28.5t-125.5 93.5q-55 72 -66.5 162t-11.5 176v926h211v-960q0 -41 4 -82t19.5 -74t45 -52.5t80.5 -19.5q52 0 81.5 19.5t45 52.5t19.5 74t4 82v960h211v-926v0zM373 -302v182h178v-182
h-178z" />
    <glyph glyph-name="uni1EE5" unicode="&#x1ee5;" 
d="M508 0v131q-49 -59 -110.5 -102t-141.5 -43q-53 0 -86 20.5t-51.5 53t-24.5 75.5t-6 86v797h193v-746q0 -20 1 -40.5t8 -38t21.5 -28.5t40.5 -11q47 0 88 32.5t68 69.5v762h190v-1018h-190zM308 -302v182h178v-182h-178z" />
    <glyph glyph-name="uni1EE6" unicode="&#x1ee6;" horiz-adv-x="929" 
d="M825 440q0 -90 -11.5 -177t-66.5 -161q-49 -65 -126 -93.5t-157 -28.5q-84 0 -156.5 28.5t-125.5 93.5q-55 72 -66.5 162t-11.5 176v926h211v-960q0 -41 4 -82t19.5 -74t45 -52.5t80.5 -19.5q52 0 81.5 19.5t45 52.5t19.5 74t4 82v960h211v-926v0zM396 1450q2 19 4 33
q5 25 14.5 49.5t22.5 49t29 54.5q11 17 20 37t9 40q0 21 -8.5 30t-21.5 9q-9 0 -17.5 -6t-16.5 -16.5t-14 -25t-13 -39.5l-123 37q22 69 64.5 109.5t125.5 40.5q33 0 63 -10t51.5 -28.5t33.5 -44.5t12 -56q0 -39 -16 -67.5t-35 -59.5q-20 -30 -33.5 -51.5t-21.5 -44.5
q-5 -14 -9 -40h-120z" />
    <glyph glyph-name="uni1EE7" unicode="&#x1ee7;" 
d="M508 0v131q-49 -59 -110.5 -102t-141.5 -43q-53 0 -86 20.5t-51.5 53t-24.5 75.5t-6 86v797h193v-746q0 -20 1 -40.5t8 -38t21.5 -28.5t40.5 -11q47 0 88 32.5t68 69.5v762h190v-1018h-190zM336 1098q2 19 5 33q4 25 14 49.5t22.5 49t28.5 54.5q12 17 20.5 37t8.5 40
q0 21 -8.5 30t-21.5 9q-9 0 -17 -6t-16.5 -16.5t-14 -25t-12.5 -39.5l-124 37q23 69 65 109.5t125 40.5q33 0 63 -10t51.5 -28.5t33.5 -44.5t12 -56q0 -39 -15.5 -67.5t-35.5 -59.5q-20 -30 -33.5 -51.5t-21.5 -44.5q-4 -14 -8 -40h-121z" />
    <glyph glyph-name="uni1EE8" unicode="&#x1ee8;" horiz-adv-x="929" 
d="M524 1475h-143l92 182h199zM825 1261v-821q0 -90 -11 -177t-66 -161q-50 -65 -126.5 -93.5t-156.5 -28.5q-84 0 -156.5 28.5t-126.5 93.5q-55 72 -66.5 162t-11.5 176v926h211v-960q0 -41 4.5 -82t19.5 -74t45 -52.5t81 -19.5t80.5 19.5t45 52.5t19.5 74t4 82v960h176
l11 34h-71v169h153v-169z" />
    <glyph glyph-name="uni1EE9" unicode="&#x1ee9;" 
d="M453 1184h-144l94 182h199zM698 884v-884h-190v131q-49 -59 -110.5 -102t-141.5 -43q-53 0 -86 20.5t-51.5 53t-24.5 75.5t-6 86v797h193v-746q0 -20 1 -40.5t8 -38t21.5 -28.5t40.5 -11q47 0 88 32.5t68 69.5v762h168l13 41h-71v169h153v-169z" />
    <glyph glyph-name="uni1EEA" unicode="&#x1eea;" horiz-adv-x="929" 
d="M406 1475l-148 182h199l92 -182h-143zM825 1261v-821q0 -90 -11 -177t-66 -161q-50 -65 -126.5 -93.5t-156.5 -28.5q-84 0 -156.5 28.5t-126.5 93.5q-55 72 -66.5 162t-11.5 176v926h211v-960q0 -41 4.5 -82t19.5 -74t45 -52.5t81 -19.5t80.5 19.5t45 52.5t19.5 74t4 82
v960h176l11 34h-71v169h153v-169z" />
    <glyph glyph-name="uni1EEB" unicode="&#x1eeb;" 
d="M334 1184l-148 182h199l94 -182h-145zM698 884v-884h-190v131q-49 -59 -110.5 -102t-141.5 -43q-53 0 -86 20.5t-51.5 53t-24.5 75.5t-6 86v797h193v-746q0 -20 1 -40.5t8 -38t21.5 -28.5t40.5 -11q47 0 88 32.5t68 69.5v762h168l13 41h-71v169h153v-169z" />
    <glyph glyph-name="uni1EEC" unicode="&#x1eec;" horiz-adv-x="929" 
d="M396 1450q2 19 5 33q4 25 14 49.5t22.5 49t28.5 54.5q12 17 20.5 37t8.5 40q0 21 -8.5 30t-21.5 9q-9 0 -17 -6t-16.5 -16.5t-14 -25t-12.5 -39.5l-124 37q23 69 65 109.5t125 40.5q33 0 63 -10t51.5 -28.5t33.5 -44.5t12 -56q0 -39 -15.5 -67.5t-35.5 -59.5
q-20 -30 -33.5 -51.5t-20.5 -44.5q-5 -14 -9 -40h-121zM825 1261v-821q0 -90 -11 -177t-66 -161q-50 -65 -126.5 -93.5t-156.5 -28.5q-84 0 -156.5 28.5t-126.5 93.5q-55 72 -66.5 162t-11.5 176v926h211v-960q0 -41 4.5 -82t19.5 -74t45 -52.5t81 -19.5t80.5 19.5t45 52.5
t19.5 74t4 82v960h176l11 34h-71v169h153v-169z" />
    <glyph glyph-name="uni1EED" unicode="&#x1eed;" 
d="M336 1098q2 19 5 33q4 25 14 49.5t22.5 49t28.5 54.5q12 17 20.5 37t8.5 40q0 21 -8.5 30t-21.5 9q-9 0 -17 -6t-16.5 -16.5t-14 -25t-12.5 -39.5l-124 37q23 69 65 109.5t125 40.5q33 0 63 -10t51.5 -28.5t33.5 -44.5t12 -56q0 -39 -15.5 -67.5t-35.5 -59.5
q-20 -30 -33.5 -51.5t-20.5 -44.5q-5 -14 -9 -40h-121zM698 884v-884h-190v131q-49 -59 -110.5 -102t-141.5 -43q-53 0 -86 20.5t-51.5 53t-24.5 75.5t-6 86v797h193v-746q0 -20 1 -40.5t8 -38t21.5 -28.5t40.5 -11q47 0 88 32.5t68 69.5v762h168l13 41h-71v169h153v-169z
" />
    <glyph glyph-name="uni1EEE" unicode="&#x1eee;" horiz-adv-x="929" 
d="M668 1509q-27 -14 -48.5 -24t-52.5 -10q-49 0 -94 20.5t-96 20.5q-35 0 -61.5 -7.5t-57.5 -23.5v141q31 16 57.5 23.5t61.5 7.5q51 0 96 -19.5t94 -19.5q31 0 52.5 9t48.5 26v-144zM825 1261v-821q0 -90 -11 -177t-66 -161q-50 -65 -126.5 -93.5t-156.5 -28.5
q-84 0 -156.5 28.5t-126.5 93.5q-55 72 -66.5 162t-11.5 176v926h211v-960q0 -41 4.5 -82t19.5 -74t45 -52.5t81 -19.5t80.5 19.5t45 52.5t19.5 74t4 82v960h176l11 34h-71v169h153v-169z" />
    <glyph glyph-name="uni1EEF" unicode="&#x1eef;" 
d="M598 1219q-25 -15 -47.5 -25t-50.5 -10q-49 0 -95.5 20.5t-97.5 20.5q-35 0 -61.5 -7.5t-57.5 -23.5v141q31 17 57.5 24t61.5 7q51 0 96.5 -19.5t96.5 -19.5q30 0 50.5 9.5t47.5 25.5v-143zM698 884v-884h-190v131q-49 -59 -110.5 -102t-141.5 -43q-53 0 -86 20.5
t-51.5 53t-24.5 75.5t-6 86v797h193v-746q0 -20 1 -40.5t8 -38t21.5 -28.5t40.5 -11q47 0 88 32.5t68 69.5v762h168l13 41h-71v169h153v-169z" />
    <glyph glyph-name="uni1EF0" unicode="&#x1ef0;" horiz-adv-x="929" 
d="M374 -302v182h178v-182h-178zM825 1261v-821q0 -90 -11 -177t-66 -161q-50 -65 -126.5 -93.5t-156.5 -28.5q-84 0 -156.5 28.5t-126.5 93.5q-55 72 -66.5 162t-11.5 176v926h211v-960q0 -41 4.5 -82t19.5 -74t45 -52.5t81 -19.5t80.5 19.5t45 52.5t19.5 74t4 82v960h176
l11 34h-71v169h153v-169z" />
    <glyph glyph-name="uni1EF1" unicode="&#x1ef1;" 
d="M308 -302v182h178v-182h-178zM698 884v-884h-190v131q-49 -59 -110.5 -102t-141.5 -43q-53 0 -86 20.5t-51.5 53t-24.5 75.5t-6 86v797h193v-746q0 -20 1 -40.5t8 -38t21.5 -28.5t40.5 -11q47 0 88 32.5t68 69.5v762h168l13 41h-71v169h153v-169z" />
    <glyph glyph-name="Ygrave" unicode="&#x1ef2;" horiz-adv-x="901" 
d="M552 532v-532h-213v532l-305 834h231l183 -578l190 578h230zM405 1475l-148 182h199l92 -182h-143z" />
    <glyph glyph-name="ygrave" unicode="&#x1ef3;" horiz-adv-x="724" 
d="M483 43q-12 -55 -26.5 -113.5t-38 -110.5t-61.5 -94t-97 -63q-52 -18 -104 -20t-105 -4v196q8 0 15 -1t15 -1q78 0 127.5 44t49.5 124q0 23 -5.5 44.5t-9.5 43.5l-223 930h201l149 -696l137 696h197zM333 1184l-147 182h199l94 -182h-146z" />
    <glyph glyph-name="uni1EF4" unicode="&#x1ef4;" horiz-adv-x="901" 
d="M552 532v-532h-213v532l-305 834h231l183 -578l190 578h230zM353 -302v182h178v-182h-178z" />
    <glyph glyph-name="uni1EF5" unicode="&#x1ef5;" horiz-adv-x="724" 
d="M483 43q-12 -55 -26.5 -113.5t-38 -110.5t-61.5 -94t-97 -63q-52 -18 -104 -20t-105 -4v196q8 0 15 -1t15 -1q78 0 127.5 44t49.5 124q0 23 -5.5 44.5t-9.5 43.5l-223 930h201l149 -696l137 696h197zM478 -302v182h178v-182h-178z" />
    <glyph glyph-name="uni1EF6" unicode="&#x1ef6;" horiz-adv-x="901" 
d="M552 532v-532h-213v532l-305 834h231l183 -578l190 578h230zM396 1450q1 19 4 33q4 25 14 49.5t23 49t28 54.5q12 17 21 37t9 40q0 21 -9 30t-21 9q-9 0 -17.5 -6t-16.5 -16.5t-14 -25t-13 -39.5l-123 37q22 69 64 109.5t125 40.5q34 0 63.5 -10t51 -28.5t33.5 -44.5
t12 -56q0 -39 -15.5 -67.5t-35.5 -59.5q-19 -30 -33 -51.5t-21 -44.5q-5 -14 -9 -40h-120z" />
    <glyph glyph-name="uni1EF7" unicode="&#x1ef7;" horiz-adv-x="724" 
d="M483 43q-12 -55 -26.5 -113.5t-38 -110.5t-61.5 -94t-97 -63q-52 -18 -104 -20t-105 -4v196q8 0 15 -1t15 -1q78 0 127.5 44t49.5 124q0 23 -5.5 44.5t-9.5 43.5l-223 930h201l149 -696l137 696h197zM316 1098q2 19 4 33q5 25 14.5 49.5t22.5 49t29 54.5q11 17 20 37
t9 40q0 21 -8.5 30t-21.5 9q-9 0 -17.5 -6t-16.5 -16.5t-14 -25t-13 -39.5l-123 37q22 69 64.5 109.5t125.5 40.5q33 0 63 -10t51.5 -28.5t33.5 -44.5t12 -56q0 -39 -16 -67.5t-35 -59.5q-20 -30 -33.5 -51.5t-21.5 -44.5q-5 -14 -9 -40h-120z" />
    <glyph glyph-name="uni1EF8" unicode="&#x1ef8;" horiz-adv-x="901" 
d="M552 532v-532h-213v532l-305 834h231l183 -578l190 578h230zM667 1509q-27 -14 -48.5 -24t-52.5 -10q-49 0 -94 20.5t-96 20.5q-35 0 -61.5 -7.5t-57.5 -23.5v141q31 16 57.5 23.5t61.5 7.5q51 0 96 -19.5t94 -19.5q31 0 52.5 9t48.5 26v-144z" />
    <glyph glyph-name="uni1EF9" unicode="&#x1ef9;" horiz-adv-x="724" 
d="M483 43q-12 -55 -26.5 -113.5t-38 -110.5t-61.5 -94t-97 -63q-52 -18 -104 -20t-105 -4v196q8 0 15 -1t15 -1q78 0 127.5 44t49.5 124q0 23 -5.5 44.5t-9.5 43.5l-223 930h201l149 -696l137 696h197zM598 1219q-25 -15 -47.5 -25t-51.5 -10q-49 0 -95 20.5t-97 20.5
q-35 0 -61.5 -7.5t-57.5 -23.5v141q31 17 57.5 24t61.5 7q51 0 96 -19.5t96 -19.5q31 0 51.5 9.5t47.5 25.5v-143z" />
    <glyph glyph-name="quoteleft" unicode="&#x2018;" horiz-adv-x="362" 
d="M81 864v219l119 283h80l-93 -283h93v-219h-199z" />
    <glyph glyph-name="quoteright" unicode="&#x2019;" horiz-adv-x="362" 
d="M159 864h-78l90 283h-90v219h199v-219z" />
    <glyph glyph-name="quotedblleft" unicode="&#x201c;" horiz-adv-x="661" 
d="M382 864v219l119 283h78l-90 -283h90v-219h-197zM81 864v219l119 283h80l-93 -283h93v-219h-199z" />
    <glyph glyph-name="quotedblright" unicode="&#x201d;" horiz-adv-x="661" 
d="M460 864h-78l90 283h-90v219h197v-219zM159 864h-78l90 283h-90v219h199v-219z" />
    <glyph glyph-name="ellipsis" unicode="&#x2026;" horiz-adv-x="1064" 
d="M788 0v219h198v-219h-198zM433 0v219h197v-219h-197zM77 0v219h199v-219h-199z" />
    <glyph glyph-name="ugrave" horiz-adv-x="582" 
 />
    <glyph glyph-name="uacute" horiz-adv-x="580" 
 />
    <glyph glyph-name="yacute" horiz-adv-x="629" 
 />
  </font>
</defs>
</svg>
