<?xml version="1.0" ?><!DOCTYPE svg  PUBLIC '-//W3C//DTD SVG 1.1//EN'  'http://www.w3.org/Graphics/SVG/1.1/DTD/svg11.dtd'><svg enable-background="new 0 0 128 128" id="Слой_1" version="1.1" viewBox="0 0 128 128" xml:space="preserve" xmlns="http://www.w3.org/2000/svg" xmlns:xlink="http://www.w3.org/1999/xlink"><circle cx="64" cy="64" fill="#F6F3E0" r="62"/><g><path d="M82.4,4.6c0,0-0.1,0.1-0.1,0.1c0.1,0,0.2,0.1,0.3,0.1C82.5,4.8,82.5,4.7,82.4,4.6z" fill="#CCD1CD"/><path d="M4.6,82.4c0.1,0,0.1,0.1,0.2,0.1c0-0.1-0.1-0.2-0.1-0.3C4.7,82.3,4.7,82.4,4.6,82.4z" fill="#CCD1CD"/><path d="M34,77c7,0,12.7,5.2,13.5,12c5.7-1.4,11-3.6,15.9-6.6c-1.8-2.3-2.9-5.2-2.9-8.4c0-7.5,6.1-13.6,13.6-13.6   c3.2,0,6.1,1.1,8.4,2.9c3-4.9,5.2-10.2,6.6-15.9C82.3,46.7,77,41,77,34c0-7,5.2-12.7,12-13.5c-1.4-5.6-3.6-10.9-6.5-15.7   c-0.1,0-0.2-0.1-0.3-0.1C80,6.5,77.1,7.5,74,7.5c-4.5,0-8.4-2.2-10.9-5.5c-11.8,0.2-22.8,3.6-32.2,9.5c1-0.1,2-0.2,3.1-0.2   c12.5,0,22.7,10.1,22.7,22.7c0,12.5-10.1,22.7-22.7,22.7S11.3,46.5,11.3,34c0-1,0.1-2.1,0.2-3.1C5.7,40.3,2.2,51.3,2,63.1   c3.3,2.5,5.5,6.4,5.5,10.9c0,3.1-1.1,6-2.8,8.2c0,0.1,0.1,0.2,0.1,0.3c4.8,2.9,10.1,5.1,15.7,6.5C21.3,82.3,27,77,34,77z" fill="#CCD1CD"/></g><g opacity="0.1"><g><path d="M82.4,4.6c0,0-0.1,0.1-0.1,0.1c0.1,0,0.2,0.1,0.3,0.1C82.5,4.8,82.5,4.7,82.4,4.6z" fill="#040606"/><path d="M84.4,21.9c1.4-0.7,2.9-1.2,4.6-1.4c-1.4-5.6-3.6-10.9-6.5-15.7c-0.1,0-0.2-0.1-0.3-0.1    c-1.2,0.9-2.6,1.7-4.1,2.1C81,11.5,83.1,16.5,84.4,21.9z" fill="#040606"/></g><g><path d="M78.2,61.1c1.5,0.5,3,1.3,4.2,2.2c3-4.9,5.2-10.2,6.6-15.9c-1.6-0.2-3.2-0.7-4.6-1.4    C83.1,51.5,81,56.5,78.2,61.1z" fill="#040606"/></g><g><path d="M46.1,84.4c0.7,1.4,1.2,2.9,1.4,4.6c5.7-1.4,11-3.6,15.9-6.6c-1-1.3-1.7-2.7-2.2-4.2    C56.5,81,51.5,83.1,46.1,84.4z" fill="#040606"/></g><g><path d="M4.6,82.4c0.1,0,0.1,0.1,0.2,0.1c0-0.1-0.1-0.2-0.1-0.3C4.7,82.3,4.7,82.4,4.6,82.4z" fill="#040606"/><path d="M21.9,84.4c-5.4-1.3-10.4-3.4-15-6.2c-0.5,1.5-1.2,2.9-2.1,4.1c0,0.1,0.1,0.2,0.1,0.3    c4.8,2.9,10.1,5.1,15.7,6.5C20.7,87.4,21.2,85.8,21.9,84.4z" fill="#040606"/></g></g><g><path d="M34,57.7C47,57.7,57.7,47,57.7,34S47,10.3,34,10.3c-0.4,0-0.7,0-1.1,0c-1.4,0.8-2.8,1.7-4.1,2.6   c1.7-0.4,3.4-0.6,5.2-0.6c11.9,0,21.7,9.7,21.7,21.7S45.9,55.7,34,55.7S12.3,45.9,12.3,34c0-1.8,0.2-3.6,0.6-5.2   c-0.9,1.3-1.8,2.7-2.6,4.1c0,0.4,0,0.7,0,1.1C10.3,47,21,57.7,34,57.7z" fill="#2D2E2D"/><path d="M21.1,89.8c0.2-0.2,0.4-0.4,0.4-0.7C22.3,82.8,27.6,78,34,78s11.7,4.8,12.5,11.1c0,0.3,0.2,0.5,0.4,0.7   c0.2,0.1,0.4,0.2,0.6,0.2c0.1,0,0.2,0,0.2,0c5.7-1.4,11.2-3.6,16.2-6.7c0.2-0.1,0.4-0.4,0.5-0.7c0.1-0.3,0-0.6-0.2-0.8   c-1.8-2.2-2.7-4.9-2.7-7.8c0-6.9,5.6-12.6,12.6-12.6c2.8,0,5.5,0.9,7.8,2.7c0.2,0.2,0.5,0.2,0.8,0.2c0.3-0.1,0.5-0.2,0.7-0.5   c3-5,5.3-10.4,6.7-16.2c0.1-0.3,0-0.6-0.1-0.8c-0.2-0.2-0.4-0.4-0.7-0.4C82.8,45.7,78,40.4,78,34s4.8-11.7,11.1-12.5   c0.3,0,0.5-0.2,0.7-0.4c0.2-0.2,0.2-0.5,0.1-0.8c-1.3-5.3-3.3-10.3-6-15C83,5,82,4.7,81.1,4.4c-2.1,1.4-4.5,2.2-7,2.2   c-3.9,0-7.4-1.8-9.7-4.5c-0.1,0-0.2,0-0.4,0c-0.7,0-1.4,0-2.1,0.1C64.5,6,69,8.5,74,8.5c2.9,0,5.7-0.8,8.1-2.5   c2.5,4.3,4.4,8.8,5.6,13.6C81,21,76,27,76,34s5,13,11.7,14.3c-1.3,4.8-3.2,9.4-5.6,13.6c-2.4-1.6-5.2-2.5-8.1-2.5   c-8,0-14.6,6.5-14.6,14.6c0,2.9,0.8,5.7,2.5,8.1c-4.3,2.5-8.8,4.4-13.6,5.6C47,81,41,76,34,76s-13,5-14.3,11.7   c-4.8-1.3-9.4-3.2-13.6-5.6C7.7,79.7,8.5,77,8.5,74c0-5.1-2.6-9.5-6.5-12.1C2,62.6,2,63.3,2,64c0,0.1,0,0.2,0,0.4   c2.8,2.3,4.5,5.8,4.5,9.7c0,2.5-0.7,4.9-2.2,7C4.7,82,5,83,5.3,84c4.7,2.7,9.7,4.7,15,6C20.6,90,20.9,90,21.1,89.8z" fill="#2D2E2D"/></g><g opacity="0.1"><path d="M34,63.9c16.5,0,29.9-13.4,29.9-29.9c0-13.3-8.7-24.5-20.7-28.4c-4.3,1.5-8.4,3.6-12.3,6   c1-0.1,2-0.2,3.1-0.2c12.5,0,22.7,10.1,22.7,22.7c0,12.5-10.1,22.7-22.7,22.7S11.3,46.5,11.3,34c0-1,0.1-2.1,0.2-3.1   c-2.4,3.8-4.4,7.9-6,12.3C9.5,55.2,20.7,63.9,34,63.9z" fill="#040606"/></g></svg>