<?xml version="1.0" ?><!DOCTYPE svg  PUBLIC '-//W3C//DTD SVG 1.1//EN'  'http://www.w3.org/Graphics/SVG/1.1/DTD/svg11.dtd'><svg height="512px" id="Layer_1" style="enable-background:new 0 0 512 512;" version="1.1" viewBox="0 0 512 512" width="512px" xml:space="preserve" xmlns="http://www.w3.org/2000/svg" xmlns:xlink="http://www.w3.org/1999/xlink"><g id="Layer_1_1_"><circle cx="256" cy="256" r="243" style="fill:#125E6E;"/></g><g id="Layer_2"><g id="Favorite"/><g><path d="M426.077,92.001v205.063    c0,39.121-32.008,71.128-71.128,71.128H157.051c-39.121,0-71.128-32.008-71.128-71.128V92.001    c0-39.121,32.008-71.128,71.128-71.128h197.897C394.069,20.873,426.077,52.881,426.077,92.001z" style="fill:#141A2B;adobe-blending-mode:multiply;enable-background:new    ;"/><path d="M426.077,80.661v205.063c0,39.121-32.008,71.128-71.128,71.128H157.051    c-39.121,0-71.128-32.008-71.128-71.128V80.661c0-39.121,32.008-71.128,71.128-71.128h197.897    C394.069,9.533,426.077,41.541,426.077,80.661z" style="fill:#E1D6C7;"/><path d="M426.077,85.703v51.479    H85.923V85.703c0-39.121,32.008-71.128,71.128-71.128h197.897C394.069,14.574,426.077,46.582,426.077,85.703z" style="opacity:0.2;fill:#141A2B;adobe-blending-mode:multiply;enable-background:new    ;"/><path d="M426.077,80.661v51.479H85.923V80.661c0-20.04,8.393-38.214,21.854-51.159    c4.108-3.965,8.678-7.451,13.639-10.331c4.286-2.507,8.856-4.57,13.657-6.135c4.374-1.44,8.944-2.454,13.657-3.005    c2.739-0.338,5.513-0.498,8.322-0.498h197.897C394.069,9.533,426.077,41.541,426.077,80.661z" style="fill:#875140;"/><ellipse cx="252.92" cy="187.73" rx="97.372" ry="98.939" style="opacity:0.2;fill:#141A2B;adobe-blending-mode:multiply;enable-background:new    ;"/><circle cx="256" cy="183.193" r="94.402" style="fill:#F2EFE5;"/><circle cx="256" cy="183.193" r="76.486"/><circle cx="256" cy="183.193" r="54.304" style="fill:#125E6E;"/><circle cx="256" cy="183.193" r="35.677" style="fill:#333333;"/><ellipse cx="267.688" cy="175.01" rx="20.687" ry="16.222" style="opacity:0.5;fill:#F2F2F2;adobe-blending-mode:colorDodge;enable-background:new    ;" transform="matrix(-0.6552 -0.7555 0.7555 -0.6552 310.8553 491.9046)"/><ellipse cx="365.643" cy="70.837" rx="30.797" ry="30.416"/><ellipse cx="365.643" cy="70.837" rx="21.865" ry="21.595" style="fill:#4D4D4D;"/><ellipse cx="365.643" cy="70.837" rx="14.365" ry="14.188" style="fill:#333333;"/><path d="M375.278,63.354    c3.014,3.432,3.248,8.107,0.523,10.441c-2.725,2.334-7.377,1.444-10.391-1.988s-3.248-8.107-0.523-10.441    C367.612,59.031,372.264,59.922,375.278,63.354z" style="opacity:0.3;fill:#F2F2F2;adobe-blending-mode:colorDodge;enable-background:new    ;"/><path d="M162.368,9.533V132.14H148.73V10.031c2.739-0.338,5.513-0.498,8.322-0.498H162.368z" style="fill:#408DFF;"/><path d="M148.73,10.031v122.11h-13.657V13.036C139.447,11.596,144.018,10.582,148.73,10.031z" style="fill:#63CD93;"/><path d="M135.073,13.036V132.14h-13.657V19.171C125.702,16.664,130.272,14.601,135.073,13.036z" style="fill:#FCCA37;"/><path d="M121.416,19.171v112.97h-13.639V29.502C111.885,25.537,116.455,22.052,121.416,19.171z" style="fill:#FF3550;"/></g></g></svg>